<svg width="341" height="341" viewBox="0 0 341 341" fill="none" xmlns="http://www.w3.org/2000/svg">
<rect width="340.381" height="340.381" rx="87" fill="#163300"/>
<path d="M217.454 160.41C214.046 165.242 211.325 170.524 209.369 176.105C208.894 177.474 208.095 177.85 206.782 177.959C202.178 178.345 197.584 178.825 192.99 179.477C201.17 180.033 209.36 179.596 217.526 180.157C216.575 180.766 215.528 180.452 214.534 180.456C209.255 180.49 203.976 180.456 198.697 180.48C222.16 180.48 245.622 180.494 269.085 180.523C269.898 180.523 271.163 179.772 271.544 181.331C266.395 186.313 261.247 191.297 256.101 196.284C255.231 197.135 254.199 196.926 253.214 196.926C238.771 196.926 224.327 196.964 209.883 196.926C208.161 196.926 207.082 197.335 206.05 198.881C203.155 203.197 199.968 207.31 196.509 211.189C187.078 212.007 177.623 211.408 168.183 211.603C167.013 211.603 165.805 211.399 164.678 211.869C154.605 211.869 144.53 211.879 134.454 211.898C134.392 211.898 134.278 211.86 134.278 211.836C134.281 211.757 134.3 211.679 134.335 211.608C135.148 211.132 136.037 211.38 136.889 211.38C145.102 211.351 153.316 211.38 161.529 211.351C152.842 211.351 144.154 211.351 135.467 211.351C135.073 211.395 134.675 211.318 134.325 211.132C137.245 204.15 139.176 196.94 138.848 189.307C138.116 172.038 130.506 158.522 116.3 148.753C114.835 147.75 114.816 147.122 115.73 145.9C116.857 144.387 117.894 142.804 118.964 141.253C120.314 140.949 121.185 141.914 122.15 142.518C125.104 144.373 127.957 146.361 130.288 149.001C131.334 150.19 132.471 150.337 133.874 149.595C149.601 141.286 166.69 138.01 184.125 135.846C197.294 134.214 210.535 132.992 223.518 130.138C231.094 128.464 238.404 125.858 245.667 123.166C261.442 117.274 277.165 111.238 293.188 106.045C294.168 105.726 295.224 105.76 296.17 105.327L301.183 104.908L288.223 112.465C287.564 112.905 286.875 113.296 286.159 113.635C275.22 118.011 267.963 126.69 260.952 135.57C259.788 137.154 258.05 138.219 256.111 138.537C248.439 139.976 241.022 142.54 234.1 146.147C232.911 146.347 232.564 145.224 231.908 144.658C231.137 143.988 230.624 143.997 229.925 144.701C225.768 148.882 221.445 152.891 217.355 157.133C216.189 158.317 216.57 159.33 217.454 160.41Z" fill="white"/>
<path d="M236.075 230.292C223.31 224.742 215.263 215.049 211.078 201.928C210.664 200.624 210.574 199.954 212.372 200.025C216.719 200.149 221.069 200.149 225.422 200.025C227.248 199.968 228.161 200.601 229.075 202.199C235.286 213.061 244.588 218.488 257.244 217.732C271.769 216.866 284.429 204.267 285.19 189.947C286.022 174.286 275.611 161.141 260.402 158.658C248.346 156.689 236.109 162.762 229.488 174.353C228.104 176.773 226.635 177.591 223.981 177.477C219.41 177.277 214.826 177.42 210.051 177.42C212.258 170.714 215.425 164.674 219.962 159.447C230.749 147.034 244.217 140.785 260.863 142.145C270.537 142.959 279.685 146.892 286.932 153.352C294.178 159.812 299.131 168.45 301.046 177.967C305.983 202.042 293.037 224.418 269.724 232.109C268.772 232.427 267.774 232.737 266.794 233.06C266.218 234.178 265.163 234.425 264.05 234.553C260.503 235.022 256.925 235.202 253.349 235.091C249.04 234.786 244.75 234.339 240.646 232.893C238.986 232.299 237.055 232.104 236.075 230.292Z" fill="white"/>
<path d="M53.6055 233.967L74.0561 233.372L74.1036 232.987C71.9254 232.188 69.7234 231.456 67.5737 230.581C40.7074 219.642 30.0446 187.577 45.3064 163.579C48.8401 158.029 53.5104 153.592 58.8751 149.844C59.333 149.482 59.8689 149.233 60.4402 149.115C61.0115 148.997 61.6025 149.013 62.1662 149.164C69.6901 150.942 77.2188 152.712 84.6095 154.999C85.2753 155.209 86.588 155.151 86.3407 156.084C86.0506 157.154 85.6558 158.552 83.9246 158.538C82.4232 158.518 80.9233 158.639 79.4445 158.899C68.3156 160.897 60.8964 167.564 57.1487 177.923C53.3439 188.386 55.2748 198.331 62.5514 206.749C74.3319 220.374 94.1309 220.95 106.163 208.342C117.321 196.652 117.226 179.578 105.75 167.098C104.118 165.32 104.109 164.121 105.336 162.309C107.371 159.303 109.309 156.234 111.148 153.102C111.966 151.718 112.612 151.504 114.001 152.441C119.932 156.469 124.117 161.914 127.094 168.33C135.179 185.775 131.165 207.676 117.487 221.173C113.378 225.226 108.37 227.875 103.386 230.585C100.242 232.887 96.5231 233.577 92.8325 234.352C84.6333 234.695 76.4293 234.59 68.23 234.595C67.4356 234.673 66.6341 234.631 65.852 234.471L53.5817 234.314C53.4105 234.233 53.3534 234.152 53.4105 234.076C53.4306 234.043 53.4591 234.015 53.4934 233.996C53.5276 233.976 53.5662 233.966 53.6055 233.967Z" fill="white"/>
<path d="M296.206 105.292C292.402 107.528 288.121 108.369 284.041 109.772C274.115 113.182 264.308 116.906 254.468 120.573C244.709 124.192 235.04 128.121 224.853 130.47C216.397 132.42 207.808 133.609 199.195 134.646C187.229 136.073 175.225 137.314 163.421 139.877C153.2 142.084 143.298 145.256 134.072 150.255C132.459 151.13 131.38 151.249 130.067 149.679C127.038 146.051 122.933 143.73 119 141.257C120.993 137.411 123.288 133.729 125.863 130.247C129.03 125.876 133.525 124.154 138.794 124.169C150.266 124.202 161.737 124.211 173.204 124.268C189.735 124.359 206.267 124.744 222.794 124.511C234.118 124.354 242.336 118.652 247.215 108.393C247.986 106.771 248.742 106.048 250.678 106.086C264.998 106.372 279.29 105.135 293.61 105.192C294.475 105.178 295.341 105.249 296.206 105.292Z" fill="#9FE870"/>
<path d="M102.862 131.495C94.2723 131.604 85.6451 132.446 77.1224 130.881C72.6946 130.073 69.0373 125.469 68.79 121.093C68.7091 119.553 69.6603 118.425 70.4451 117.289C76.7229 108.048 85.1504 101.347 95.3329 96.938C106.571 92.0727 118.314 89.1953 130.627 88.9766C131.022 88.9766 131.421 88.9766 131.811 88.9766C131.944 88.9766 132.068 89.0907 132.458 89.2809C130.213 90.8789 128.04 92.339 125.956 93.9227C119.465 98.8594 113.496 104.314 109.049 111.253C109.054 111.809 108.852 112.346 108.483 112.761C104.485 118.418 101.061 124.459 98.2626 130.796C99.7417 131.038 101.497 130.073 102.862 131.495Z" fill="#9FE870"/>
<path d="M78.9378 179.696C81.9769 172.969 85.4481 166.446 89.3295 160.168C98.6226 145.153 107.435 129.844 116.914 114.953C117.466 114.087 117.722 113.574 116.752 112.637C116.299 112.22 115.933 111.717 115.675 111.158C115.416 110.599 115.27 109.995 115.245 109.38C115.221 108.764 115.318 108.15 115.53 107.572C115.743 106.994 116.068 106.464 116.486 106.012C118.06 104.333 121.318 104.109 123.239 105.536C125.342 107.096 125.617 109.341 123.853 112.009C123.235 112.96 123.406 113.227 124.119 114.149C127.777 118.905 133.103 118.81 138.23 119.381C138.088 119.565 137.889 119.697 137.664 119.757C137.117 119.847 136.613 119.604 136.28 119.652C137.498 120.365 139.295 119.348 140.632 120.517C138.054 120.812 135.462 121.055 132.894 121.421C130.598 121.721 128.387 122.486 126.397 123.671C124.004 125.171 122.004 127.22 120.562 129.649C114.607 139.223 97.9996 167.002 90.8276 178.06C88.8349 181.146 87.156 183.586 86.1858 184.97C84.6496 187.4 81.934 188.342 80.1933 187.581C78.0769 186.654 76.8166 182.901 78.9378 179.696Z" fill="white"/>
<path d="M200.627 119.644C193.845 119.868 187.258 119.088 180.652 118.536C169.396 117.585 158.14 116.651 146.885 115.735C142.557 115.373 138.234 114.983 133.906 114.641C132.479 114.527 131.932 114.07 132.664 112.591C135.085 107.697 138.276 103.484 142.828 100.368C144.863 98.9749 147.07 99.3316 149.234 99.6646C154.58 100.492 159.54 102.518 164.496 104.606C175.91 109.405 187.324 114.118 198.762 118.874L200.627 119.644Z" fill="white"/>
<path d="M93.3398 233.898L103.389 230.592C105.834 230.973 108.283 230.659 110.728 230.659L229.027 230.749C230.768 230.749 232.503 230.892 234.258 230.911C234.92 230.911 235.733 231.211 236.094 230.283C240.812 232.752 245.925 233.75 251.133 234.392C251.827 234.478 252.559 234.331 253.187 234.744C252.426 235.391 251.518 235.063 250.681 235.063C241.668 235.091 232.651 235.258 223.638 235.063C180.954 234.088 138.264 234.887 95.5799 234.587C94.8142 234.578 93.7584 235.153 93.3398 233.898Z" fill="#9FE870"/>
<path d="M77.9946 188.032C79.897 189.934 83.4116 189.582 85.5185 188.508C86.8835 187.827 87.7015 186.824 88.9 185.354C90.0129 183.989 90.1032 183.5 91.7821 180.85C94.6071 176.394 95.3681 176.175 95.8389 176.209C96.6046 176.266 97.1468 177.046 98.1408 178.463C98.7845 179.391 99.3101 180.396 99.7055 181.454C100.71 184.191 100.976 187.143 100.476 190.015C99.4059 197.03 93.8176 202.452 87.3543 202.999C78.884 203.717 72.3731 199.717 69.938 192.312C67.6837 185.435 71.07 176.504 77.3145 172.932C77.8995 172.599 78.6224 172.033 79.2169 172.551C79.6021 172.88 79.3025 173.788 79.1218 174.34C78.2324 176.993 77.7854 178.325 77.1766 180.023C76.4727 182.092 75.9495 185.992 77.9946 188.032Z" fill="#9FE870"/>
<path d="M54.1133 146.185C67.6772 136.412 82.0116 135.404 97.2449 139.023C94.8051 144.002 91.5378 148.368 88.7556 153.02C88.047 154.209 87.1671 153.329 86.4775 153.129C79.1343 150.975 71.7721 148.882 64.2672 147.35C61.1045 146.704 57.8752 146.551 54.1133 146.185Z" fill="white"/>
<path d="M93.3358 233.901C94.1205 234.69 95.124 234.376 96.0419 234.376C136.32 234.376 176.603 234.243 216.881 234.481C227.629 234.543 238.383 234.723 249.131 234.823C250.477 234.823 251.818 234.761 253.164 234.728C256.969 235.156 260.65 234.157 264.393 233.853C265.211 233.791 265.996 233.316 266.799 233.03C268.269 233.877 269.881 233.506 271.417 233.444C279.802 233.211 288.158 234.062 296.538 234.096C288.991 234.871 281.419 234.833 273.852 234.923C215.83 235.637 157.807 234.585 99.7563 234.923C89.2457 234.985 78.7303 234.776 68.2149 234.671C67.4349 234.671 66.655 234.528 65.875 234.457C69.3468 234.4 72.8234 234.21 76.2905 234.319C81.9834 234.538 87.6572 234.115 93.3358 233.901Z" fill="#9FE870"/>
<path d="M102.871 131.495H97.2969C100.626 124.095 104.112 117.26 109.063 111.244C110.457 112.604 112.806 113.85 112.987 115.358C113.167 116.866 111.213 118.687 110.185 120.338C108.202 123.557 106.233 126.787 104.207 129.978C103.855 130.534 103.755 131.381 102.871 131.495Z" fill="white"/>
<path d="M270.369 185.841C270.57 188.951 269.869 192.054 268.35 194.776C266.832 197.498 264.561 199.724 261.809 201.188C256.278 204.042 248.621 202.777 245.672 199.8C248.364 199.8 250.903 199.771 253.476 199.8C254.104 199.83 254.73 199.726 255.314 199.495C255.898 199.264 256.426 198.91 256.863 198.458C260.577 194.839 264.363 191.296 268.134 187.734C268.767 187.172 269.433 186.645 270.369 185.841Z" fill="#9FE870"/>
<path d="M217.447 160.411C215.116 158.833 215.007 158.509 217.042 156.654C220.609 153.42 223.315 149.264 227.558 146.752C227.677 146.681 227.705 146.477 227.805 146.362C231.61 141.911 230.259 142.306 234.107 146.115C227.71 149.882 222.022 154.505 217.447 160.411Z" fill="white"/>
<path d="M265.377 177.218H244.641C248.579 171.82 258.999 171.758 265.377 177.218Z" fill="#9FE870"/>
<path d="M271.552 181.337C270.796 180.258 269.65 180.743 268.699 180.743C245.477 180.714 222.254 180.706 199.029 180.719H196.484V180.163H217.506C231.162 180.163 244.816 180.175 258.469 180.201C262.749 180.201 266.991 180.158 271.253 180.153C271.666 180.153 272.313 179.896 272.375 180.576C272.427 180.795 271.866 181.085 271.552 181.337Z" fill="white"/>
<path d="M164.711 211.862C164.953 211.03 165.638 211.135 166.261 211.139L196.542 211.182C196.286 211.848 195.691 211.786 195.154 211.796C185 211.934 174.86 212.124 164.711 211.862Z" fill="white"/>
<path d="M140.665 120.524C139.181 120.196 137.516 120.766 136.07 119.573L138.263 119.368C143.494 119.392 148.726 119.501 153.886 120.319C153.658 120.752 153.144 120.519 152.835 120.757L140.665 120.524Z" fill="white"/>
<path d="M134.355 211.125H161.35V211.601H134.365C134.324 211.497 134.292 211.391 134.27 211.282C134.265 211.234 134.327 211.177 134.355 211.125Z" fill="white"/>
<path d="M152.836 120.796L153.887 120.358H162.367C159.19 121.062 156.013 121.024 152.836 120.796Z" fill="white"/>
<path d="M53.5988 233.967C53.6107 234.085 53.6107 234.205 53.5988 234.323C50.4742 234.68 47.3543 234.323 44.2344 233.967H53.5988Z" fill="white"/>
<path d="M203.908 152.041C191.371 154.543 180.28 160.127 170.098 167.655C159.915 175.184 151.825 184.643 146.551 196.424C147.64 190.45 147.222 184.634 146.152 178.827C145.957 177.762 146.465 177.205 147.103 176.587C161 162.837 177.579 154.624 197.04 152.251C199.312 151.898 201.619 151.828 203.908 152.041Z" fill="#163300"/>
<path d="M205.206 145.327C199.975 145.922 194.829 146.121 189.692 146.849C173.698 149.108 159.373 155.167 146.86 165.397C143.341 168.279 143.369 168.298 141.153 164.303C140.359 162.853 139.584 161.383 138.656 160.023C137.924 158.939 138.181 158.52 139.289 157.921C158.936 147.23 179.714 142.122 202.167 144.771C203.204 144.899 204.203 145.127 205.206 145.327Z" fill="#163300"/>
<path d="M106.59 98.5811C103.023 101.691 99.6559 104.811 97.1115 108.759C95.462 111.36 94.27 114.225 93.5873 117.229C93.359 118.18 93.0356 118.494 92.0654 118.485C87.162 118.447 82.2586 118.485 77.3553 118.485C76.8797 118.485 76.0807 118.799 75.9285 118.118C75.8334 117.705 76.2281 117.091 76.542 116.692C80.4094 111.592 85.3458 107.401 91.0048 104.412C95.898 101.741 101.145 99.7777 106.59 98.5811Z" fill="#163300"/>
</svg>
