<svg width="195" height="47" viewBox="0 0 195 47" fill="none" xmlns="http://www.w3.org/2000/svg">
<path d="M49.9732 23.0963C49.1457 24.2695 48.485 25.5519 48.0103 26.9068C47.8948 27.2394 47.7008 27.3306 47.3821 27.3571C46.2644 27.4507 45.1489 27.5673 44.0335 27.7255C46.0196 27.8606 48.008 27.7543 49.9906 27.8906C49.7596 28.0384 49.5056 27.9622 49.2643 27.9633C47.9826 27.9714 46.7008 27.9633 45.4191 27.9691C51.1156 27.9691 56.8121 27.9726 62.5085 27.9795C62.706 27.9795 63.0131 27.7971 63.1055 28.1758C61.8554 29.3852 60.6056 30.5953 59.3562 31.8061C59.1449 32.0128 58.8944 31.962 58.6553 31.962C55.1485 31.962 51.6418 31.9713 48.135 31.962C47.717 31.962 47.4549 32.0613 47.2043 32.4366C46.5015 33.4846 45.7276 34.4831 44.888 35.4249C42.5982 35.6235 40.3027 35.4781 38.0107 35.5254C37.7266 35.5254 37.4333 35.4758 37.1596 35.5901C34.714 35.5901 32.268 35.5924 29.8216 35.597C29.8066 35.597 29.7789 35.5878 29.7789 35.582C29.7796 35.5628 29.7843 35.5439 29.7927 35.5266C29.9902 35.4111 30.2061 35.4711 30.4128 35.4711C32.4069 35.4642 34.4011 35.4711 36.3952 35.4642C34.286 35.4642 32.1768 35.4642 30.0675 35.4642C29.9719 35.4748 29.8753 35.4563 29.7904 35.4111C30.4994 33.716 30.9682 31.9655 30.8885 30.1122C30.7107 25.9195 28.8632 22.6379 25.4141 20.2662C25.0585 20.0225 25.0539 19.8701 25.2756 19.5734C25.5493 19.2062 25.801 18.8217 26.0608 18.4452C26.3887 18.3713 26.6 18.6057 26.8344 18.7524C27.5515 19.2027 28.2443 19.6854 28.8101 20.3262C29.0641 20.6149 29.3401 20.6507 29.6807 20.4706C33.4993 18.4533 37.6481 17.6577 41.8812 17.1324C45.0785 16.7363 48.2932 16.4395 51.4455 15.7467C53.2849 15.3403 55.0596 14.7075 56.8229 14.054C60.653 12.6233 64.4704 11.158 68.3605 9.89705C68.5984 9.81969 68.8547 9.82778 69.0845 9.7227L70.3015 9.62109L67.155 11.4559C66.9952 11.5627 66.8276 11.6577 66.6539 11.74C63.9981 12.8023 62.236 14.9096 60.534 17.0654C60.2514 17.45 59.8295 17.7086 59.3586 17.7859C57.496 18.1351 55.6952 18.7577 54.0146 19.6334C53.726 19.6819 53.6417 19.4094 53.4823 19.272C53.2953 19.1092 53.1706 19.1115 53.0008 19.2824C51.9916 20.2974 50.942 21.2708 49.949 22.3007C49.6661 22.5883 49.7585 22.8342 49.9732 23.0963Z" fill="white"/>
<path d="M54.4943 40.0607C51.3951 38.7132 49.4414 36.3601 48.4253 33.1743C48.3248 32.8579 48.3029 32.695 48.7393 32.7123C49.7947 32.7423 50.8509 32.7423 51.9078 32.7123C52.3512 32.6984 52.5729 32.8521 52.7946 33.2401C54.3026 35.8774 56.5612 37.1948 59.6338 37.0112C63.1602 36.8011 66.234 33.7424 66.4188 30.2656C66.6208 26.4632 64.0932 23.2716 60.4005 22.6688C57.4734 22.1909 54.5024 23.6654 52.895 26.4794C52.559 27.0671 52.2022 27.2656 51.5579 27.2379C50.4483 27.1894 49.3351 27.2241 48.1758 27.2241C48.7116 25.596 49.4806 24.1295 50.5822 22.8605C53.201 19.8468 56.4711 18.3296 60.5125 18.6598C62.8612 18.8574 65.0823 19.8122 66.8417 21.3806C68.601 22.949 69.8036 25.0463 70.2685 27.357C71.4671 33.202 68.324 38.6348 62.6637 40.5019C62.4328 40.5793 62.1903 40.6543 61.9524 40.7328C61.8127 41.0041 61.5564 41.0643 61.2862 41.0955C60.4251 41.2093 59.5563 41.2528 58.6881 41.2258C57.642 41.1519 56.6005 41.0435 55.604 40.6925C55.201 40.5481 54.7322 40.5007 54.4943 40.0607Z" fill="white"/>
<path d="M10.1933 40.954L15.1585 40.8096L15.17 40.7161C14.6412 40.5221 14.1065 40.3443 13.5846 40.1318C7.06181 37.4761 4.473 29.6911 8.1784 23.8646C9.03634 22.5171 10.1702 21.4397 11.4727 20.5298C11.5839 20.4421 11.714 20.3815 11.8527 20.3528C11.9914 20.3242 12.1349 20.3282 12.2717 20.3647C14.0985 20.7966 15.9263 21.2261 17.7207 21.7815C17.8824 21.8323 18.2011 21.8185 18.141 22.0448C18.0706 22.3046 17.9748 22.6441 17.5544 22.6406C17.1899 22.6357 16.8258 22.6651 16.4667 22.7284C13.7648 23.2133 11.9634 24.8322 11.0535 27.3471C10.1298 29.8874 10.5986 32.3019 12.3653 34.3457C15.2254 37.6539 20.0324 37.7936 22.9538 34.7325C25.6627 31.8943 25.6396 27.749 22.8533 24.719C22.4573 24.2872 22.4549 23.9962 22.7529 23.5563C23.2471 22.8265 23.7174 22.0814 24.1639 21.3208C24.3625 20.9848 24.5195 20.9328 24.8567 21.1603C26.2966 22.1383 27.3127 23.4604 28.0356 25.0181C29.9985 29.2535 29.024 34.5709 25.7031 37.8479C24.7054 38.8317 23.4896 39.4748 22.2794 40.133C21.5162 40.6919 20.6132 40.8593 19.7172 41.0475C17.7265 41.1306 15.7347 41.1052 13.744 41.1064C13.5511 41.1253 13.3565 41.1152 13.1666 41.0764L10.1875 41.0383C10.146 41.0186 10.1321 40.999 10.146 40.9805C10.1508 40.9723 10.1578 40.9656 10.1661 40.9609C10.1744 40.9562 10.1838 40.9539 10.1933 40.954Z" fill="white"/>
<path d="M69.0941 9.71222C68.1703 10.2549 67.1311 10.4593 66.1404 10.7999C63.7305 11.6278 61.3496 12.532 58.9605 13.4222C56.5911 14.3009 54.2436 15.2547 51.7703 15.8251C49.7172 16.2985 47.6319 16.5872 45.5407 16.8389C42.6355 17.1854 39.7211 17.4867 36.8551 18.1091C34.3737 18.6449 31.9697 19.4151 29.7296 20.6286C29.3381 20.8411 29.076 20.87 28.7573 20.4889C28.0218 19.6079 27.0253 19.0444 26.0703 18.444C26.5542 17.5103 27.1114 16.6164 27.7366 15.7709C28.5056 14.7097 29.5968 14.2917 30.8762 14.2952C33.6613 14.3032 36.4464 14.3056 39.2303 14.3194C43.244 14.3414 47.2577 14.4349 51.2703 14.3783C54.0196 14.3402 56.0149 12.9557 57.1996 10.4651C57.3867 10.0713 57.5703 9.89582 58.0402 9.90506C61.517 9.97434 64.9868 9.67412 68.4636 9.68797C68.6738 9.68451 68.8839 9.70183 69.0941 9.71222Z" fill="#9FE870"/>
<path d="M22.1542 16.0749C20.0688 16.1014 17.9742 16.3058 15.905 15.9259C14.83 15.7296 13.942 14.6119 13.882 13.5496C13.8623 13.1754 14.0933 12.9018 14.2838 12.6258C15.808 10.3823 17.8541 8.7553 20.3263 7.6849C23.0548 6.50365 25.9057 5.80507 28.8952 5.75195C28.9911 5.75195 29.0881 5.75195 29.1828 5.75195C29.2151 5.75195 29.2451 5.77966 29.3398 5.82585C28.7948 6.21383 28.2671 6.56832 27.7613 6.95283C26.1852 8.1514 24.736 9.47583 23.6564 11.1605C23.6576 11.2953 23.6086 11.4258 23.519 11.5266C22.5483 12.8999 21.7171 14.3667 21.0376 15.9051C21.3967 15.964 21.8228 15.7296 22.1542 16.0749Z" fill="#9FE870"/>
<path d="M16.3457 27.7766C17.0836 26.1435 17.9263 24.5598 18.8687 23.0355C21.125 19.3901 23.2646 15.6732 25.5659 12.0578C25.6998 11.8477 25.7622 11.723 25.5266 11.4955C25.4167 11.3942 25.3278 11.2722 25.265 11.1365C25.2022 11.0008 25.1668 10.8541 25.1608 10.7047C25.1548 10.5553 25.1783 10.4061 25.23 10.2658C25.2817 10.1255 25.3605 9.99684 25.462 9.88704C25.8442 9.47943 26.6351 9.42516 27.1016 9.77157C27.612 10.1503 27.679 10.6953 27.2506 11.3431C27.1005 11.574 27.1421 11.6387 27.3153 11.8627C28.2032 13.0174 29.4965 12.9943 30.7412 13.1328C30.7068 13.1776 30.6584 13.2097 30.6038 13.2241C30.471 13.246 30.3486 13.1871 30.2678 13.1987C30.5634 13.3719 30.9999 13.1248 31.3243 13.4088C30.6985 13.4804 30.0692 13.5393 29.4457 13.6282C28.8882 13.701 28.3515 13.8868 27.8683 14.1744C27.2874 14.5386 26.8016 15.0362 26.4516 15.6258C25.0059 17.9502 20.9737 24.6947 19.2324 27.3794C18.7486 28.1288 18.341 28.7211 18.1055 29.0572C17.7325 29.6472 17.0732 29.8758 16.6505 29.6911C16.1367 29.4659 15.8307 28.5549 16.3457 27.7766Z" fill="white"/>
<path d="M45.8898 13.1977C44.2432 13.2519 42.644 13.0626 41.0401 12.9286C38.3073 12.6977 35.5746 12.471 32.8418 12.2485C31.791 12.1608 30.7414 12.0661 29.6907 11.9829C29.3443 11.9552 29.2115 11.8444 29.3893 11.4853C29.977 10.2971 30.7518 9.27404 31.8569 8.51772C32.3511 8.17939 32.8868 8.26599 33.4122 8.34682C34.7101 8.54774 35.9144 9.03963 37.1176 9.54654C39.8889 10.7116 42.6601 11.8559 45.4372 13.0106L45.8898 13.1977Z" fill="white"/>
<path d="M19.8398 40.938L22.2797 40.1355C22.8732 40.2279 23.4679 40.1517 24.0614 40.1517L52.7831 40.1736C53.2057 40.1736 53.6272 40.2083 54.0533 40.2129C54.2138 40.2129 54.4112 40.2856 54.499 40.0605C55.6444 40.6597 56.8857 40.9022 58.1501 41.0581C58.3187 41.0789 58.4965 41.0431 58.6489 41.1436C58.4642 41.3006 58.2436 41.2209 58.0404 41.2209C55.8523 41.2278 53.663 41.2683 51.4749 41.2209C41.1115 40.9842 30.747 41.1782 20.3837 41.1055C20.1978 41.1031 19.9415 41.2429 19.8398 40.938Z" fill="#9FE870"/>
<path d="M16.1142 29.8016C16.5761 30.2634 17.4294 30.178 17.9409 29.917C18.2723 29.7519 18.4709 29.5083 18.7619 29.1515C19.0321 28.8201 19.0541 28.7011 19.4617 28.058C20.1476 26.976 20.3323 26.9229 20.4466 26.931C20.6325 26.9449 20.7642 27.1342 21.0055 27.4783C21.1618 27.7037 21.2894 27.9477 21.3854 28.2046C21.6293 28.869 21.6938 29.5859 21.5724 30.2831C21.3126 31.9862 19.9559 33.3026 18.3866 33.4354C16.3301 33.6097 14.7494 32.6386 14.1582 30.8408C13.6109 29.1711 14.433 27.0026 15.9491 26.1354C16.0911 26.0546 16.2666 25.9172 16.411 26.0431C16.5045 26.1227 16.4318 26.3433 16.3879 26.4772C16.172 27.1215 16.0634 27.4448 15.9156 27.8571C15.7447 28.3594 15.6177 29.3062 16.1142 29.8016Z" fill="#9FE870"/>
<path d="M10.3164 19.6417C13.6096 17.2688 17.0898 17.024 20.7883 17.9027C20.1959 19.1117 19.4026 20.1717 18.7271 21.301C18.5551 21.5896 18.3415 21.376 18.174 21.3275C16.3912 20.8044 14.6037 20.2964 12.7816 19.9246C12.0138 19.7675 11.2297 19.7306 10.3164 19.6417Z" fill="white"/>
<path d="M19.839 40.9379C20.0296 41.1295 20.2732 41.0533 20.4961 41.0533C30.2751 41.0533 40.0553 41.021 49.8344 41.0787C52.444 41.0938 55.0547 41.1376 57.6643 41.1619C57.9911 41.1619 58.3167 41.1469 58.6435 41.1388C59.5673 41.2427 60.461 41.0002 61.3697 40.9263C61.5683 40.9113 61.7589 40.7958 61.954 40.7266C62.3108 40.9321 62.7022 40.842 63.0752 40.827C65.1109 40.7704 67.1397 40.9771 69.1743 40.9852C67.3418 41.1734 65.5035 41.1642 63.6664 41.1861C49.5792 41.3593 35.492 41.1041 21.3979 41.1861C18.846 41.2011 16.293 41.1503 13.74 41.1249C13.5506 41.1249 13.3612 41.0903 13.1719 41.073C14.0148 41.0591 14.8589 41.0129 15.7006 41.0395C17.0828 41.0926 18.4603 40.9898 19.839 40.9379Z" fill="#9FE870"/>
<path d="M22.1541 16.0749H20.8008C21.6091 14.2782 22.4555 12.6189 23.6575 11.1582C23.9958 11.4884 24.5662 11.791 24.6101 12.157C24.654 12.523 24.1794 12.9653 23.93 13.366C23.4485 14.1477 22.9705 14.9317 22.4786 15.7065C22.3931 15.8416 22.3689 16.0472 22.1541 16.0749Z" fill="white"/>
<path d="M62.8225 29.2695C62.8712 30.0247 62.701 30.7779 62.3323 31.4389C61.9637 32.0998 61.4122 32.6403 60.7441 32.9957C59.4012 33.6885 57.5421 33.3814 56.8262 32.6585C57.4798 32.6585 58.0964 32.6516 58.7211 32.6585C58.8734 32.666 59.0255 32.6407 59.1673 32.5846C59.3091 32.5284 59.4373 32.4426 59.5432 32.3329C60.445 31.4542 61.3641 30.5939 62.2798 29.7291C62.4334 29.5928 62.595 29.4647 62.8225 29.2695Z" fill="#9FE870"/>
<path d="M49.9733 23.0955C49.4075 22.7121 49.381 22.6336 49.8752 22.1833C50.7412 21.3981 51.3982 20.3889 52.4282 19.7792C52.4571 19.7619 52.464 19.7123 52.4883 19.6846C53.412 18.6038 53.0841 18.6996 54.0182 19.6245C52.4652 20.539 51.0842 21.6614 49.9733 23.0955Z" fill="white"/>
<path d="M61.6086 27.1761H56.5742C57.5303 25.8655 60.0602 25.8505 61.6086 27.1761Z" fill="#9FE870"/>
<path d="M63.1104 28.176C62.9268 27.9139 62.6485 28.0317 62.4176 28.0317C56.7796 28.0248 51.1413 28.0228 45.5025 28.0259H44.8848V27.8908H49.9885C53.304 27.8908 56.6191 27.8939 59.9338 27.9C60.9731 27.9 62.0031 27.8897 63.0377 27.8885C63.1381 27.8885 63.2951 27.8261 63.3102 27.9913C63.3229 28.0444 63.1866 28.1148 63.1104 28.176Z" fill="white"/>
<path d="M37.1699 35.5873C37.2288 35.3852 37.395 35.4106 37.5463 35.4118L44.8982 35.4222C44.8358 35.5838 44.6915 35.5688 44.561 35.5711C42.0958 35.6046 39.634 35.6508 37.1699 35.5873Z" fill="white"/>
<path d="M31.3323 13.4115C30.972 13.3318 30.5679 13.4703 30.2168 13.1805L30.7491 13.1309C32.0193 13.1366 33.2895 13.1632 34.5423 13.3618C34.4869 13.4669 34.3622 13.4103 34.2871 13.468L31.3323 13.4115Z" fill="white"/>
<path d="M29.8002 35.4082H36.3542V35.5237H29.8025C29.7926 35.4986 29.7848 35.4727 29.7794 35.4463C29.7783 35.4348 29.7933 35.4209 29.8002 35.4082Z" fill="white"/>
<path d="M34.2871 13.4773L34.5423 13.3711H36.6011C35.8298 13.542 35.0584 13.5328 34.2871 13.4773Z" fill="white"/>
<path d="M10.1935 40.9531C10.1964 40.9819 10.1964 41.0109 10.1935 41.0397C9.43487 41.1263 8.67739 41.0397 7.91992 40.9531H10.1935Z" fill="white"/>
<path d="M46.6851 21.0625C43.6414 21.6698 40.9486 23.0254 38.4764 24.8533C36.0042 26.6812 34.0401 28.9778 32.7596 31.838C33.024 30.3877 32.9224 28.9755 32.6626 27.5657C32.6152 27.307 32.7388 27.1719 32.8935 27.0218C36.2675 23.6836 40.2928 21.6895 45.0178 21.1133C45.5693 21.0277 46.1294 21.0106 46.6851 21.0625Z" fill="#181818"/>
<path d="M47.0022 19.4334C45.732 19.5778 44.4827 19.6263 43.2356 19.8029C39.3524 20.3514 35.8744 21.8225 32.8365 24.3062C31.982 25.006 31.9889 25.0106 31.4508 24.0406C31.258 23.6885 31.0698 23.3317 30.8446 23.0014C30.6668 22.7382 30.7292 22.6365 30.9982 22.491C35.7682 19.8953 40.8131 18.6552 46.2643 19.2983C46.5161 19.3295 46.7585 19.3849 47.0022 19.4334Z" fill="#181818"/>
<path d="M23.0591 8.08398C22.1931 8.83914 21.3755 9.59662 20.7578 10.555C20.3573 11.1867 20.0679 11.8822 19.9021 12.6115C19.8467 12.8425 19.7682 12.9187 19.5326 12.9164C18.3422 12.9071 17.1517 12.9164 15.9612 12.9164C15.8457 12.9164 15.6517 12.9926 15.6148 12.8275C15.5917 12.727 15.6875 12.578 15.7637 12.4811C16.7027 11.243 17.9012 10.2254 19.2752 9.49963C20.4632 8.85115 21.7372 8.37451 23.0591 8.08398Z" fill="#FCFDFD"/>
<path d="M109.639 12.7868V34.9993H104.229V21.6781L99.2611 34.9993H94.8946L89.8952 21.6465V34.9993H84.4844V12.7868H90.8761L97.1095 28.1647L103.279 12.7868H109.639ZM121.567 35.2524C119.838 35.2524 118.277 34.8833 116.884 34.145C115.513 33.4067 114.427 32.3519 113.625 30.9808C112.845 29.6097 112.455 28.0065 112.455 26.1713C112.455 24.3571 112.855 22.7645 113.657 21.3934C114.459 20.0011 115.555 18.9359 116.948 18.1975C118.34 17.4592 119.901 17.0901 121.631 17.0901C123.36 17.0901 124.921 17.4592 126.314 18.1975C127.706 18.9359 128.803 20.0011 129.604 21.3934C130.406 22.7645 130.807 24.3571 130.807 26.1713C130.807 27.9854 130.395 29.5886 129.573 30.9808C128.771 32.3519 127.664 33.4067 126.25 34.145C124.858 34.8833 123.297 35.2524 121.567 35.2524ZM121.567 30.5695C122.601 30.5695 123.476 30.1898 124.194 29.4304C124.932 28.671 125.301 27.5846 125.301 26.1713C125.301 24.7579 124.942 23.6716 124.225 22.9122C123.529 22.1528 122.664 21.7731 121.631 21.7731C120.576 21.7731 119.701 22.1528 119.004 22.9122C118.308 23.6505 117.96 24.7368 117.96 26.1713C117.96 27.5846 118.298 28.671 118.973 29.4304C119.669 30.1898 120.534 30.5695 121.567 30.5695ZM143.518 30.4112V34.9993H140.765C138.803 34.9993 137.274 34.5247 136.177 33.5754C135.08 32.6051 134.532 31.0335 134.532 28.8608V21.8363H132.38V17.3432H134.532V13.0399H139.942V17.3432H143.486V21.8363H139.942V28.9241C139.942 29.4515 140.069 29.8312 140.322 30.0632C140.575 30.2952 140.997 30.4112 141.588 30.4112H143.518ZM154.569 35.2524C152.839 35.2524 151.278 34.8833 149.886 34.145C148.515 33.4067 147.428 32.3519 146.627 30.9808C145.846 29.6097 145.456 28.0065 145.456 26.1713C145.456 24.3571 145.857 22.7645 146.658 21.3934C147.46 20.0011 148.557 18.9359 149.949 18.1975C151.341 17.4592 152.902 17.0901 154.632 17.0901C156.362 17.0901 157.923 17.4592 159.315 18.1975C160.707 18.9359 161.804 20.0011 162.606 21.3934C163.407 22.7645 163.808 24.3571 163.808 26.1713C163.808 27.9854 163.397 29.5886 162.574 30.9808C161.772 32.3519 160.665 33.4067 159.252 34.145C157.859 34.8833 156.298 35.2524 154.569 35.2524ZM154.569 30.5695C155.602 30.5695 156.478 30.1898 157.195 29.4304C157.933 28.671 158.302 27.5846 158.302 26.1713C158.302 24.7579 157.944 23.6716 157.227 22.9122C156.53 22.1528 155.666 21.7731 154.632 21.7731C153.577 21.7731 152.702 22.1528 152.006 22.9122C151.31 23.6505 150.962 24.7368 150.962 26.1713C150.962 27.5846 151.299 28.671 151.974 29.4304C152.67 30.1898 153.535 30.5695 154.569 30.5695ZM172.089 20.2859C172.722 19.3156 173.513 18.5561 174.462 18.0077C175.412 17.4381 176.466 17.1534 177.627 17.1534V22.8805H176.139C174.789 22.8805 173.777 23.1758 173.102 23.7665C172.427 24.336 172.089 25.3486 172.089 26.8041V34.9993H166.679V17.3432H172.089V20.2859ZM182.934 15.508C181.985 15.508 181.204 15.2338 180.593 14.6853C180.002 14.1158 179.707 13.4196 179.707 12.597C179.707 11.7532 180.002 11.0571 180.593 10.5086C181.204 9.93907 181.985 9.6543 182.934 9.6543C183.862 9.6543 184.622 9.93907 185.212 10.5086C185.824 11.0571 186.13 11.7532 186.13 12.597C186.13 13.4196 185.824 14.1158 185.212 14.6853C184.622 15.2338 183.862 15.508 182.934 15.508ZM185.624 17.3432V34.9993H180.213V17.3432H185.624Z" fill="#9FE870"/>
</svg>
