<svg width="119" height="66" viewBox="0 0 119 66" fill="none" xmlns="http://www.w3.org/2000/svg">
<path d="M89.1065 63.6678C83.3553 61.1672 79.7298 56.8003 77.8441 50.8884C77.6577 50.3013 77.617 49.9992 78.427 50.0313C80.3854 50.087 82.3453 50.087 84.3067 50.0313C85.1295 50.0056 85.5409 50.2906 85.9523 51.0106C88.7508 55.9046 92.942 58.3495 98.6439 58.0088C105.188 57.6188 110.892 51.9427 111.235 45.4908C111.61 38.4347 106.919 32.5121 100.067 31.3936C94.6348 30.5065 89.1215 33.2428 86.1387 38.4647C85.5152 39.5554 84.8531 39.9239 83.6574 39.8725C81.5982 39.7825 79.5326 39.8468 77.3813 39.8468C78.3755 36.8255 79.8026 34.1042 81.8468 31.7493C86.7066 26.1567 92.7749 23.3411 100.275 23.954C104.633 24.3206 108.755 26.0923 112.019 29.0029C115.284 31.9134 117.516 35.8053 118.379 40.0932C120.603 50.9398 114.77 61.0215 104.266 64.4864C103.838 64.6299 103.388 64.7692 102.947 64.9149C102.687 65.4185 102.212 65.5299 101.71 65.5877C100.112 65.799 98.4999 65.88 96.889 65.8299C94.9476 65.6927 93.0148 65.4913 91.1656 64.8399C90.4178 64.5721 89.5479 64.4842 89.1065 63.6678Z" fill="white"/>
<path d="M6.89719 65.3242L16.111 65.0564L16.1325 64.8828C15.1511 64.5228 14.159 64.1928 13.1905 63.7986C1.08603 58.8702 -3.71802 44.4238 3.15809 33.6114C4.75016 31.1108 6.85434 29.1116 9.27137 27.4231C9.4777 27.2603 9.71915 27.1478 9.97654 27.0946C10.2339 27.0415 10.5002 27.049 10.7542 27.1167C14.144 27.9181 17.536 28.7152 20.8658 29.7459C21.1658 29.8402 21.7572 29.8144 21.6458 30.2344C21.5151 30.7165 21.3372 31.3465 20.5573 31.3401C19.8808 31.331 19.205 31.3855 18.5388 31.5029C13.5247 32.4029 10.182 35.407 8.49355 40.074C6.77934 44.788 7.6493 49.2685 10.9277 53.0612C16.2353 59.2002 25.1556 59.4595 30.5768 53.779C35.6037 48.5121 35.5609 40.8196 30.3904 35.197C29.6554 34.3957 29.6511 33.8557 30.204 33.0393C31.1211 31.6851 31.9939 30.3023 32.8224 28.8909C33.191 28.2674 33.4824 28.1709 34.1081 28.5931C36.7801 30.408 38.6657 32.8614 40.0071 35.752C43.6498 43.6117 41.8413 53.4791 35.6787 59.5602C33.8274 61.3858 31.5711 62.5793 29.3254 63.8007C27.9091 64.8378 26.2334 65.1485 24.5707 65.4978C20.8766 65.652 17.1803 65.6049 13.4862 65.6071C13.1283 65.6421 12.7671 65.6234 12.4148 65.5513L6.88648 65.4806C6.80934 65.4442 6.78363 65.4078 6.80934 65.3735C6.81837 65.3583 6.83125 65.3457 6.84667 65.3371C6.86209 65.3284 6.87951 65.324 6.89719 65.3242Z" fill="white"/>
<path d="M116.197 7.34976C114.483 8.35685 112.554 8.73612 110.716 9.36824C106.244 10.9046 101.825 12.5824 97.3921 14.2344C92.9952 15.8651 88.6389 17.635 84.0491 18.6935C80.2393 19.572 76.3695 20.1077 72.489 20.5749C67.0978 21.2177 61.6895 21.7769 56.3711 22.9319C51.7664 23.9261 47.3051 25.3553 43.1482 27.6074C42.4218 28.0017 41.9354 28.0552 41.344 27.3481C39.9791 25.7132 38.1298 24.6675 36.3578 23.5533C37.2557 21.8206 38.2896 20.1619 39.4498 18.5928C40.8769 16.6236 42.9018 15.8479 45.276 15.8544C50.4443 15.8694 55.6126 15.8736 60.7788 15.8994C68.227 15.9401 75.6753 16.1136 83.1213 16.0086C88.2232 15.9379 91.9259 13.3688 94.1244 8.74684C94.4715 8.01616 94.8122 7.69046 95.6843 7.7076C102.136 7.83616 108.575 7.27905 115.027 7.30476C115.417 7.29833 115.807 7.33047 116.197 7.34976Z" fill="#9FE870"/>
<path d="M18.3119 40.8731C19.6812 37.8425 21.2451 34.9037 22.9938 32.075C27.1807 25.3103 31.1513 18.4128 35.4218 11.7038C35.6703 11.3138 35.7861 11.0824 35.3489 10.6603C35.1449 10.4723 34.9799 10.2459 34.8634 9.99408C34.7469 9.74226 34.6812 9.46995 34.67 9.19272C34.6589 8.91548 34.7025 8.63877 34.7984 8.37841C34.8943 8.11805 35.0406 7.87917 35.2289 7.6754C35.9382 6.91901 37.406 6.8183 38.2717 7.46113C39.2188 8.16395 39.343 9.17533 38.5481 10.3774C38.2695 10.806 38.3466 10.926 38.6681 11.3417C40.3158 13.4844 42.7157 13.4416 45.0256 13.6987C44.9617 13.7818 44.872 13.8413 44.7706 13.868C44.5242 13.9087 44.2971 13.7994 44.1471 13.8208C44.6956 14.1422 45.5056 13.6837 46.1077 14.2108C44.9463 14.3437 43.7785 14.4529 42.6214 14.6179C41.587 14.753 40.5909 15.0979 39.6944 15.6315C38.6163 16.3074 37.715 17.2307 37.0653 18.3249C34.3825 22.6383 26.9 35.1541 23.6688 40.136C22.7709 41.5267 22.0145 42.6259 21.5774 43.2495C20.8853 44.3444 19.6618 44.7687 18.8776 44.4258C17.924 44.008 17.3562 42.3174 18.3119 40.8731Z" fill="white"/>
<path d="M73.1363 13.8166C70.0807 13.9173 67.113 13.5658 64.1367 13.3173C59.0655 12.8887 53.9943 12.468 48.9231 12.0552C46.9732 11.8924 45.0254 11.7166 43.0755 11.5624C42.4327 11.5109 42.1863 11.3052 42.5163 10.6388C43.6069 8.43394 45.0447 6.53546 47.0953 5.13196C48.0124 4.50413 49.0067 4.66483 49.9816 4.81483C52.3901 5.18767 54.625 6.10048 56.8577 7.04115C62.0004 9.20319 67.143 11.3267 72.2963 13.4694L73.1363 13.8166Z" fill="white"/>
<path d="M24.7955 65.2943L29.3232 63.8051C30.4246 63.9765 31.5281 63.835 32.6295 63.835L85.9284 63.8758C86.7126 63.8758 87.4948 63.94 88.2854 63.9486C88.5833 63.9486 88.9497 64.0836 89.1125 63.6658C91.2381 64.7779 93.5416 65.2278 95.8879 65.5171C96.2008 65.5557 96.5308 65.4893 96.8136 65.6757C96.4708 65.9671 96.0615 65.8192 95.6844 65.8192C91.6239 65.8321 87.5612 65.9071 83.5006 65.8192C64.2694 65.38 45.036 65.74 25.8048 65.605C25.4598 65.6007 24.9841 65.8599 24.7955 65.2943Z" fill="#9FE870"/>
<path d="M17.883 44.6294C18.7401 45.4866 20.3236 45.328 21.2728 44.8437C21.8878 44.5373 22.2563 44.0852 22.7963 43.4231C23.2977 42.8081 23.3384 42.5874 24.0948 41.3939C25.3676 39.3861 25.7105 39.2876 25.9226 39.3026C26.2676 39.3283 26.5118 39.6797 26.9597 40.3182C27.2497 40.7365 27.4865 41.1892 27.6647 41.666C28.1173 42.8988 28.237 44.2292 28.0118 45.523C27.5297 48.6835 25.0119 51.1263 22.0999 51.3727C18.2837 51.6963 15.3502 49.8942 14.2531 46.5579C13.2375 43.4595 14.7631 39.4354 17.5766 37.8262C17.8401 37.6762 18.1658 37.4212 18.4337 37.6548C18.6072 37.8026 18.4722 38.2119 18.3908 38.4604C17.9901 39.6561 17.7887 40.2561 17.5144 41.021C17.1973 41.9531 16.9616 43.7102 17.883 44.6294Z" fill="#9FE870"/>
<path d="M7.12445 25.7753C13.2356 21.372 19.6939 20.9177 26.5571 22.5483C25.4579 24.7918 23.9858 26.7589 22.7323 28.8545C22.413 29.3902 22.0166 28.9937 21.7059 28.9037C18.3975 27.9331 15.0805 26.9903 11.6992 26.3003C10.2743 26.0089 8.81937 25.9403 7.12445 25.7753Z" fill="white"/>
<path d="M24.7959 65.2943C25.1494 65.65 25.6015 65.5086 26.0151 65.5086C44.1621 65.5086 62.3113 65.4486 80.4583 65.5557C85.3009 65.5836 90.1457 65.665 94.9883 65.71C95.5947 65.71 96.199 65.6821 96.8054 65.6671C98.5196 65.86 100.178 65.41 101.864 65.2729C102.233 65.245 102.587 65.0307 102.949 64.9022C103.611 65.2836 104.337 65.1164 105.029 65.0886C108.807 64.9836 112.572 65.3671 116.347 65.3821C112.947 65.7314 109.535 65.7143 106.126 65.755C79.9847 66.0764 53.8431 65.6028 27.6886 65.755C22.9531 65.7828 18.2155 65.6886 13.4778 65.6414C13.1264 65.6414 12.775 65.5771 12.4236 65.545C13.9878 65.5193 15.5541 65.4336 17.1162 65.4828C19.6811 65.5814 22.2374 65.3907 24.7959 65.2943Z" fill="#9FE870"/>
<path d="M29.0896 19.1563H26.5782C28.0782 15.8222 29.6488 12.7431 31.8794 10.0325C32.5073 10.6453 33.5658 11.2067 33.6472 11.886C33.7286 12.5652 32.8479 13.3859 32.3851 14.1294C31.4916 15.5801 30.6045 17.035 29.6917 18.4728C29.5331 18.7235 29.4881 19.1049 29.0896 19.1563Z" fill="white"/>
<path d="M104.56 43.6416C104.65 45.043 104.334 46.4408 103.65 47.6672C102.966 48.8937 101.943 49.8968 100.703 50.5563C98.2108 51.8419 94.7609 51.2719 93.4324 49.9306C94.6452 49.9306 95.7895 49.9177 96.9487 49.9306C97.2314 49.9443 97.5137 49.8976 97.7768 49.7933C98.0399 49.6891 98.2778 49.5299 98.4743 49.3263C100.148 47.6957 101.853 46.0993 103.553 44.4944C103.838 44.2415 104.138 44.0037 104.56 43.6416Z" fill="#9FE870"/>
<path d="M80.7152 32.1843C79.6652 31.4729 79.6159 31.3272 80.533 30.4915C82.1401 29.0345 83.3593 27.1617 85.2707 26.0303C85.3242 25.9982 85.3371 25.906 85.3821 25.8546C87.0963 23.849 86.4878 24.0268 88.2213 25.7432C85.3392 27.4402 82.7765 29.523 80.7152 32.1843Z" fill="white"/>
<path d="M102.308 39.7567H92.9656C94.7398 37.3247 99.4346 37.2968 102.308 39.7567Z" fill="#9FE870"/>
<path d="M105.093 41.6124C104.753 41.126 104.236 41.3445 103.808 41.3445C93.3452 41.3317 82.8822 41.3281 72.4184 41.3338H71.272V41.0831H80.743C86.8955 41.0831 93.0474 41.0888 99.1985 41.1003C101.127 41.1003 103.038 41.081 104.958 41.0788C105.145 41.0788 105.436 40.9631 105.464 41.2695C105.488 41.3681 105.235 41.4988 105.093 41.6124Z" fill="white"/>
<path d="M56.9541 55.3646C57.0634 54.9896 57.3719 55.0368 57.6526 55.0389L71.2956 55.0582C71.1799 55.3582 70.912 55.3303 70.6699 55.3346C66.0951 55.3968 61.5267 55.4825 56.9541 55.3646Z" fill="white"/>
<path d="M46.1225 14.2129C45.454 14.0651 44.704 14.3222 44.0526 13.7844L45.0404 13.6923C47.3975 13.703 49.7545 13.7523 52.0794 14.1208C51.9765 14.3158 51.7451 14.2108 51.6058 14.3179L46.1225 14.2129Z" fill="white"/>
<path d="M43.279 55.0325H55.4413V55.2468H43.2833C43.2648 55.2003 43.2505 55.1522 43.2404 55.1032C43.2383 55.0818 43.2661 55.0561 43.279 55.0325Z" fill="white"/>
<path d="M51.606 14.3352L52.0796 14.1381H55.9001C54.4687 14.4552 53.0374 14.438 51.606 14.3352Z" fill="white"/>
<path d="M6.89719 65.3241C6.90255 65.3775 6.90255 65.4314 6.89719 65.4848C5.4894 65.6455 4.08375 65.4848 2.6781 65.3241H6.89719Z" fill="white"/>
<path d="M112.6 10.5837C112.303 10.7819 111.992 10.9575 111.67 11.1101C106.742 13.0814 103.472 16.9925 100.314 20.9929C99.7892 21.7066 99.0058 22.1864 98.132 22.3298C94.6755 22.9778 91.3336 24.1334 88.215 25.7585C87.6795 25.8484 87.5232 25.3427 87.2277 25.0876C86.8805 24.7855 86.6491 24.7901 86.3341 25.1072C84.4613 26.9907 82.5128 28.7964 80.67 30.7078C80.1452 31.2412 80.3166 31.6981 80.715 32.1843C79.1793 34.3613 77.9534 36.7414 77.0724 39.2556C76.8581 39.8725 76.4986 40.0423 75.9073 40.0916C73.8333 40.2651 71.7633 40.4816 69.6935 40.7751C73.3787 41.0258 77.0684 40.828 80.7472 41.0808C80.6153 41.1652 80.479 41.2073 80.3409 41.2292C88.2197 41.2317 96.0989 41.2363 103.978 41.2458C104.344 41.2456 104.914 40.908 105.085 41.6101C102.765 43.8543 100.446 46.1004 98.1271 48.3474C97.7351 48.7305 97.2706 48.6365 96.8273 48.6365C90.3197 48.6365 83.8114 48.6536 77.3038 48.6365C76.5284 48.6365 76.0422 48.821 75.5773 49.5173C74.2732 51.462 72.8365 53.3144 71.2784 55.0623C67.0295 55.4308 62.7699 55.1609 58.5167 55.2488C57.9897 55.2488 57.4454 55.157 56.9376 55.3689C52.3994 55.3689 47.8601 55.373 43.3204 55.3816C43.2927 55.3816 43.2408 55.365 43.2404 55.3542C43.2417 55.3187 43.2512 55.2838 43.2667 55.2517C43.3774 55.187 43.4911 55.1528 43.6066 55.1355C43.4868 55.1257 43.369 55.0939 43.2618 55.0369C44.5775 51.8913 45.4478 48.643 45.2999 45.2039C44.9699 37.4235 41.5412 31.3336 35.1407 26.9324C34.4812 26.4805 34.4728 26.1976 34.8839 25.6472C35.3917 24.9659 35.8588 24.252 36.3409 23.5535C36.9495 23.4163 37.3415 23.8516 37.7765 24.1238C39.1071 24.9595 40.3935 25.8545 41.4435 27.0437C41.9148 27.5793 42.4267 27.6464 43.0587 27.3123C50.1448 23.5689 57.844 22.0919 65.6993 21.1169C71.6325 20.382 77.5978 19.8313 83.4474 18.5457C86.8607 17.7914 90.154 16.6168 93.4259 15.4041C100.533 12.7492 107.618 10.0301 114.837 7.69019C115.278 7.5468 115.754 7.56173 116.18 7.36694L118.439 7.17847L112.6 10.5837ZM44.4171 55.1482C48.1176 55.1353 51.8182 55.1484 55.5187 55.1355H44.1476C44.2379 55.142 44.328 55.1482 44.4171 55.1482ZM74.6154 28.4128C73.584 28.3167 72.5442 28.3488 71.5206 28.5076C62.7526 29.5769 55.2827 33.2778 49.0216 39.4724C48.7347 39.7508 48.5061 40.0015 48.5939 40.4812C49.076 43.0973 49.2641 45.7178 48.7736 48.4089C51.1498 43.1016 54.7945 38.8399 59.382 35.448C63.9696 32.056 68.967 29.5399 74.6154 28.4128ZM79.3995 41.2166C77.0213 41.2315 74.643 41.2166 72.2648 41.2273C74.7316 41.2273 77.1984 41.2285 79.6652 41.2292C79.5761 41.2229 79.4873 41.2161 79.3995 41.2166ZM73.8331 25.1365C63.7172 23.943 54.3548 26.2444 45.503 31.0613C45.004 31.3312 44.8889 31.5201 45.2189 32.0085C45.6367 32.6214 45.986 33.2837 46.3439 33.9373C47.3423 35.737 47.3296 35.7289 48.9152 34.4304C54.5526 29.8215 61.0061 27.0908 68.212 26.073C70.5262 25.7452 72.8452 25.6553 75.2023 25.3875C74.7502 25.2975 74.3002 25.1943 73.8331 25.1365Z" fill="white"/>
<path d="M42.2055 0C42.2655 0 42.3217 0.0510085 42.4975 0.136719C41.4861 0.856685 40.5063 1.51498 39.5678 2.22852C36.643 4.45267 33.954 6.91087 31.9506 10.0371C31.9526 10.2871 31.8618 10.529 31.6957 10.7158C29.8944 13.2643 28.3511 15.9861 27.0902 18.8408C27.0941 18.8333 27.0019 19.1466 26.9984 19.1582C23.1286 19.2075 21.4056 19.5848 17.5658 18.8799C15.571 18.5155 13.9233 16.441 13.8119 14.4697C13.7756 13.7756 14.2045 13.2679 14.558 12.7559C17.3864 8.59255 21.1833 5.57323 25.7709 3.58691C30.8342 1.39492 36.1247 0.0985658 41.6723 0H42.2055ZM30.7699 4.32617C28.3168 4.86532 25.952 5.74974 23.7475 6.95312C21.1979 8.29986 18.9742 10.1889 17.2318 12.4863C17.0904 12.6663 16.9126 12.9426 16.9555 13.1289C17.0241 13.435 17.3838 13.294 17.598 13.2939C19.8072 13.2939 22.0168 13.2768 24.226 13.2939C24.6628 13.2982 24.8087 13.1567 24.9115 12.7285C25.2191 11.3752 25.7563 10.0842 26.4994 8.91211C27.6458 7.13362 29.1628 5.72754 30.7699 4.32617Z" fill="#9FE870"/>
</svg>
