<svg width="921" height="195" viewBox="0 0 921 195" fill="none" xmlns="http://www.w3.org/2000/svg">
<path d="M197.778 165.716C185.013 160.166 176.966 150.473 172.781 137.351C172.367 136.048 172.277 135.378 174.075 135.449C178.422 135.573 182.772 135.573 187.125 135.449C188.951 135.392 189.865 136.024 190.778 137.622C196.989 148.485 206.292 153.912 218.947 153.155C233.472 152.29 246.132 139.691 246.893 125.371C247.725 109.71 237.315 96.5644 222.105 94.0818C210.049 92.1128 197.812 98.1862 191.191 109.776C189.807 112.197 188.338 113.015 185.684 112.901C181.114 112.701 176.529 112.844 171.754 112.844C173.961 106.138 177.128 100.098 181.665 94.8713C192.452 82.4582 205.921 76.2089 222.566 77.5691C232.24 78.3828 241.388 82.3154 248.635 88.7754C255.881 95.2354 260.835 103.874 262.749 113.391C267.686 137.465 254.74 159.842 231.427 167.533C230.476 167.851 229.477 168.16 228.497 168.484C227.922 169.601 226.866 169.849 225.753 169.977C222.206 170.446 218.628 170.626 215.052 170.515C210.743 170.21 206.453 169.763 202.349 168.317C200.689 167.723 198.758 167.528 197.778 165.716Z" fill="white"/>
<path d="M15.3086 169.391L35.7592 168.796L35.8068 168.411C33.6285 167.612 31.4265 166.88 29.2768 166.005C2.4105 155.066 -8.2523 123.001 7.00952 99.0028C10.5432 93.4526 15.2135 89.0153 20.5782 85.2677C21.0362 84.9063 21.5721 84.6566 22.1434 84.5386C22.7147 84.4205 23.3056 84.4373 23.8693 84.5876C31.3932 86.3663 38.9219 88.1355 46.3126 90.4231C46.9784 90.6324 48.2911 90.5753 48.0438 91.5075C47.7537 92.5775 47.3589 93.9758 45.6278 93.9615C44.1264 93.9414 42.6264 94.0624 41.1477 94.323C30.0188 96.3205 22.5995 102.988 18.8518 113.347C15.047 123.81 16.978 133.755 24.2545 142.173C36.035 155.798 55.834 156.374 67.8666 143.766C79.024 132.076 78.9289 115.002 67.4528 102.522C65.8215 100.744 65.812 99.545 67.039 97.733C69.0746 94.7272 71.0118 91.6581 72.8508 88.5255C73.6688 87.1415 74.3156 86.9275 75.7043 87.8644C81.635 91.8927 85.8202 97.3382 88.7975 103.754C96.8826 121.199 92.8685 143.1 79.1905 156.597C75.0813 160.649 70.0733 163.298 65.0891 166.009C61.9454 168.311 58.2263 169.001 54.5357 169.776C46.3364 170.118 38.1324 170.014 29.9331 170.019C29.1388 170.096 28.3372 170.055 27.5552 169.895L15.2848 169.738C15.1136 169.657 15.0566 169.576 15.1136 169.5C15.1337 169.466 15.1623 169.439 15.1965 169.419C15.2307 169.4 15.2694 169.39 15.3086 169.391Z" fill="white"/>
<path d="M257.91 40.716C254.105 42.9513 249.824 43.7932 245.744 45.1962C235.818 48.6062 226.011 52.3301 216.171 55.9969C206.412 59.6162 196.743 63.5446 186.556 65.894C178.1 67.844 169.511 69.0329 160.898 70.0697C148.932 71.4965 136.928 72.7378 125.124 75.3013C114.903 77.508 105.001 80.6802 95.7747 85.6787C94.1624 86.5538 93.0829 86.6727 91.7702 85.1033C88.7407 81.4745 84.6363 79.1536 80.7031 76.6805C82.696 72.8348 84.9908 69.1532 87.566 65.6705C90.7334 61.2998 95.2278 59.5781 100.497 59.5924C111.969 59.6257 123.44 59.6352 134.907 59.6923C151.438 59.7826 167.97 60.1679 184.497 59.9348C195.821 59.7779 204.039 54.0755 208.919 43.8169C209.689 42.1952 210.445 41.4722 212.381 41.5103C226.701 41.7957 240.993 40.5591 255.313 40.6162C256.178 40.6019 257.044 40.6732 257.91 40.716Z" fill="#9FE870"/>
<path d="M40.6409 115.12C43.6801 108.393 47.1512 101.87 51.0326 95.5916C60.3257 80.5771 69.1385 65.2677 78.6171 50.3769C79.1688 49.5113 79.4256 48.9976 78.4554 48.0607C78.0025 47.6435 77.6362 47.141 77.3777 46.5821C77.1191 46.0232 76.9733 45.4188 76.9486 44.8034C76.9238 44.1881 77.0207 43.5739 77.2335 42.996C77.4464 42.4182 77.7711 41.8879 78.1891 41.4357C79.7633 39.7568 83.0211 39.5333 84.9425 40.9601C87.0446 42.52 87.3205 44.7648 85.556 47.4329C84.9377 48.3841 85.109 48.6504 85.8223 49.5731C89.4797 54.329 94.8063 54.2339 99.9332 54.8046C99.7914 54.9891 99.5923 55.1212 99.3673 55.1804C98.8203 55.2707 98.3162 55.0282 97.9833 55.0757C99.2008 55.7891 100.999 54.7713 102.335 55.9413C99.7572 56.2362 97.1653 56.4787 94.5971 56.8449C92.301 57.1447 90.0902 57.9102 88.1004 59.0945C85.7074 60.5947 83.7069 62.6442 82.2649 65.0727C76.3105 74.6464 59.7027 102.426 52.5307 113.483C50.538 116.57 48.8591 119.01 47.8889 120.394C46.3528 122.824 43.6371 123.766 41.8965 123.005C39.7801 122.077 38.5197 118.325 40.6409 115.12Z" fill="white"/>
<path d="M162.33 55.0681C155.548 55.2916 148.961 54.5117 142.355 53.96C131.099 53.0088 119.843 52.075 108.588 51.1587C104.26 50.7973 99.9367 50.4073 95.6088 50.0648C94.182 49.9507 93.6351 49.4941 94.3675 48.015C96.7883 43.1212 99.9795 38.9074 104.531 35.7923C106.566 34.3988 108.773 34.7555 110.937 35.0884C116.283 35.9159 121.243 37.9419 126.199 40.0298C137.613 44.8285 149.028 49.5417 160.466 54.2976L162.33 55.0681Z" fill="white"/>
<path d="M55.043 169.322L65.0923 166.016C67.5368 166.397 69.9861 166.083 72.4307 166.083L190.73 166.173C192.471 166.173 194.207 166.316 195.962 166.335C196.623 166.335 197.436 166.634 197.797 165.707C202.515 168.175 207.628 169.174 212.836 169.816C213.53 169.902 214.262 169.754 214.89 170.168C214.129 170.815 213.221 170.487 212.384 170.487C203.371 170.515 194.354 170.682 185.342 170.487C142.657 169.512 99.9676 170.311 57.283 170.011C56.5173 170.002 55.4615 170.577 55.043 169.322Z" fill="#9FE870"/>
<path d="M39.6977 123.456C41.6001 125.358 45.1147 125.006 47.2216 123.931C48.5866 123.251 49.4046 122.248 50.6031 120.778C51.716 119.413 51.8064 118.923 53.4852 116.274C56.3102 111.818 57.0712 111.599 57.542 111.632C58.3077 111.69 58.8499 112.47 59.8439 113.887C60.4876 114.815 61.0133 115.82 61.4086 116.878C62.4133 119.615 62.6791 122.567 62.1791 125.439C61.109 132.454 55.5207 137.876 49.0574 138.423C40.5871 139.141 34.0762 135.141 31.6412 127.736C29.3868 120.859 32.7731 111.927 39.0176 108.356C39.6026 108.023 40.3255 107.457 40.92 107.975C41.3052 108.303 41.0056 109.212 40.8249 109.763C39.9355 112.417 39.4885 113.749 38.8797 115.447C38.1758 117.516 37.6527 121.415 39.6977 123.456Z" fill="#9FE870"/>
<path d="M15.8164 81.6091C29.3804 71.8357 43.7148 70.8274 58.9481 74.4467C56.5083 79.4261 53.2409 83.7921 50.4587 88.4434C49.7501 89.6324 48.8702 88.7525 48.1806 88.5528C40.8374 86.3983 33.4752 84.3057 25.9704 82.7743C22.8077 82.1275 19.5784 81.9753 15.8164 81.6091Z" fill="white"/>
<path d="M55.0389 169.324C55.8237 170.114 56.8272 169.8 57.7451 169.8C98.0232 169.8 138.306 169.667 178.584 169.905C189.333 169.966 200.086 170.147 210.834 170.247C212.18 170.247 213.521 170.185 214.867 170.152C218.672 170.58 222.353 169.581 226.096 169.277C226.914 169.215 227.699 168.739 228.502 168.454C229.972 169.301 231.584 168.93 233.12 168.868C241.505 168.635 249.861 169.486 258.241 169.519C250.694 170.295 243.122 170.257 235.555 170.347C177.533 171.06 119.51 170.009 61.4595 170.347C50.9488 170.409 40.4334 170.2 29.918 170.095C29.1381 170.095 28.3581 169.952 27.5781 169.881C31.05 169.824 34.5265 169.634 37.9936 169.743C43.6865 169.962 49.3603 169.538 55.0389 169.324Z" fill="#9FE870"/>
<path d="M64.574 66.9188H59C62.3292 59.5185 65.8153 52.6842 70.7662 46.668C72.1597 48.0282 74.5091 49.2742 74.6899 50.7819C74.8706 52.2895 72.9159 54.111 71.8886 55.7613C69.9054 58.9811 67.9364 62.2104 65.9104 65.4016C65.5584 65.9581 65.4586 66.8046 64.574 66.9188Z" fill="white"/>
<path d="M232.073 121.265C232.273 124.375 231.572 127.478 230.054 130.2C228.535 132.922 226.264 135.148 223.512 136.612C217.981 139.466 210.324 138.201 207.375 135.223C210.067 135.223 212.607 135.195 215.179 135.223C215.807 135.254 216.434 135.15 217.018 134.919C217.602 134.687 218.129 134.334 218.566 133.882C222.28 130.263 226.066 126.72 229.837 123.158C230.47 122.596 231.136 122.068 232.073 121.265Z" fill="#9FE870"/>
<path d="M179.15 95.8353C176.819 94.2563 176.71 93.9329 178.745 92.0781C182.312 88.8441 185.019 84.6874 189.261 82.1763C189.38 82.1049 189.408 81.9004 189.508 81.7863C193.313 77.3347 191.962 77.7294 195.81 81.5389C189.413 85.3057 183.725 89.9284 179.15 95.8353Z" fill="white"/>
<path d="M227.08 112.642H206.344C210.282 107.244 220.702 107.182 227.08 112.642Z" fill="#9FE870"/>
<path d="M233.255 116.761C232.499 115.681 231.353 116.167 230.402 116.167C207.18 116.138 183.957 116.13 160.732 116.143H158.188V115.586H179.209C192.865 115.586 206.519 115.599 220.172 115.624C224.452 115.624 228.694 115.582 232.956 115.577C233.369 115.577 234.016 115.32 234.078 116C234.13 116.219 233.569 116.509 233.255 116.761Z" fill="white"/>
<path d="M126.414 147.286C126.657 146.454 127.341 146.558 127.964 146.563L158.246 146.606C157.989 147.272 157.394 147.21 156.857 147.22C146.703 147.357 136.563 147.548 126.414 147.286Z" fill="white"/>
<path d="M102.368 55.9477C100.884 55.6195 99.2192 56.1902 97.7734 54.9965L99.9659 54.792C105.197 54.8158 110.429 54.9252 115.589 55.7432C115.361 56.176 114.847 55.9429 114.538 56.1807L102.368 55.9477Z" fill="white"/>
<path d="M96.0585 146.549H123.053V147.024H96.068C96.0271 146.921 95.9953 146.815 95.9729 146.706C95.9682 146.658 96.03 146.601 96.0585 146.549Z" fill="white"/>
<path d="M114.539 56.2198L115.59 55.7822H124.07C120.893 56.4861 117.716 56.4481 114.539 56.2198Z" fill="white"/>
<path d="M15.302 169.391C15.3138 169.509 15.3138 169.629 15.302 169.747C12.1773 170.104 9.0574 169.747 5.9375 169.391H15.302Z" fill="white"/>
<path d="M249.926 47.8896C249.267 48.3296 248.577 48.7207 247.861 49.0596C236.923 53.4351 229.665 62.114 222.655 70.9932C221.491 72.5772 219.753 73.6426 217.813 73.9609C210.142 75.3992 202.725 77.9643 195.804 81.5713C194.615 81.771 194.267 80.648 193.61 80.082C192.84 79.4118 192.327 79.4214 191.628 80.125C187.471 84.3054 183.148 88.3144 179.058 92.5566C177.892 93.7408 178.273 94.7544 179.157 95.834C175.749 100.666 173.028 105.948 171.072 111.528C170.597 112.898 169.798 113.274 168.485 113.384C163.882 113.769 159.287 114.249 154.693 114.9C162.873 115.457 171.063 115.02 179.229 115.581C178.947 115.761 178.656 115.859 178.361 115.909C195.837 115.915 213.313 115.925 230.788 115.946C231.601 115.946 232.867 115.195 233.247 116.755C228.098 121.736 222.951 126.721 217.805 131.708C216.934 132.559 215.901 132.35 214.917 132.35C200.473 132.35 186.03 132.388 171.586 132.35C169.864 132.35 168.785 132.759 167.753 134.305C164.858 138.621 161.67 142.734 158.212 146.613C148.781 147.431 139.326 146.832 129.886 147.027C128.716 147.027 127.508 146.822 126.381 147.293C116.308 147.293 106.233 147.302 96.1572 147.321C96.0954 147.321 95.9805 147.284 95.9805 147.26C95.9836 147.181 96.0036 147.103 96.0381 147.031C96.2753 146.893 96.5192 146.816 96.7666 146.776C96.5096 146.752 96.2585 146.678 96.0283 146.556C98.9483 139.574 100.879 132.364 100.551 124.731C99.8184 107.463 92.2089 93.9455 78.0029 84.1768C76.5385 83.1734 76.5196 82.5454 77.4326 81.3232C78.5597 79.8109 79.5969 78.2271 80.667 76.6768C82.0175 76.3726 82.8881 77.3384 83.8535 77.9424C86.8068 79.7971 89.6599 81.7854 91.9902 84.4248C93.0365 85.6137 94.1733 85.7604 95.5762 85.0186C111.304 76.7099 128.393 73.4335 145.828 71.2695C158.997 69.6383 172.238 68.416 185.222 65.5625C192.798 63.8884 200.108 61.2817 207.37 58.5898C223.145 52.6973 238.868 46.6622 254.891 41.4688C255.87 41.1501 256.927 41.1837 257.873 40.751L262.886 40.332L249.926 47.8896ZM97.9775 146.774C98.1834 146.789 98.3887 146.804 98.5918 146.804C106.805 146.775 115.019 146.803 123.232 146.774H97.9775ZM165.61 87.4648C163.321 87.2514 161.015 87.3224 158.743 87.6748C139.282 90.048 122.703 98.2613 108.806 112.011C108.168 112.629 107.66 113.186 107.854 114.251C108.925 120.058 109.343 125.874 108.254 131.848C113.528 120.067 121.618 110.608 131.801 103.079C141.983 95.5505 153.074 89.9665 165.61 87.4648ZM176.237 115.88C170.958 115.913 165.679 115.881 160.4 115.904C165.894 115.904 171.387 115.908 176.88 115.909C176.664 115.893 176.45 115.879 176.237 115.88ZM163.87 80.1943C141.417 77.5453 120.639 82.6535 100.992 93.3447C99.8841 93.944 99.627 94.3629 100.359 95.4473C101.287 96.8074 102.062 98.2771 102.856 99.7275C105.073 103.722 105.044 103.703 108.563 100.821C121.076 90.5913 135.401 84.5325 151.396 82.2734C156.532 81.5458 161.678 81.3455 166.909 80.751C165.906 80.5512 164.907 80.3227 163.87 80.1943Z" fill="white"/>
<path d="M93.5137 24.4004C93.6468 24.4004 93.7711 24.5148 94.1611 24.7051C91.9163 26.3031 89.7423 27.763 87.6592 29.3467C81.1675 34.2832 75.1987 39.738 70.752 46.6768C70.7567 47.2319 70.5553 47.7696 70.1865 48.1846C66.1885 53.8413 62.7645 59.8833 59.9658 66.2197C61.4449 66.4621 63.1996 65.497 64.5645 66.9189C55.9753 67.0283 47.3478 67.8694 38.8252 66.3047C34.3977 65.496 30.7406 60.8928 30.4932 56.5176C30.4123 54.9767 31.3637 53.8495 32.1484 52.7129C38.4263 43.4721 46.8537 36.7711 57.0361 32.3623C68.2744 27.497 80.0169 24.6192 92.3301 24.4004H93.5137ZM68.293 34.0049C62.8483 35.2015 57.6011 37.165 52.708 39.8359C47.049 42.8251 42.1125 47.016 38.2451 52.1152C37.9313 52.5147 37.5369 53.1282 37.6318 53.542C37.784 54.2221 38.583 53.9082 39.0586 53.9082C43.9619 53.9082 48.8653 53.8702 53.7686 53.9082C54.7385 53.9177 55.0618 53.6041 55.29 52.6533C55.9728 49.6495 57.165 46.7842 58.8145 44.1826C61.3589 40.2352 64.726 37.1152 68.293 34.0049Z" fill="#9FE870"/>
<path d="M424.904 51.511V143H402.619V88.1327L382.157 143H364.172L343.581 88.0023V143H321.295V51.511H347.621L373.295 114.85L398.709 51.511H424.904ZM474.033 144.043C466.909 144.043 460.479 142.522 454.745 139.481C449.098 136.44 444.623 132.096 441.321 126.449C438.107 120.801 436.499 114.198 436.499 106.639C436.499 99.167 438.15 92.6072 441.452 86.9597C444.753 81.2254 449.271 76.8377 455.006 73.7968C460.74 70.7558 467.169 69.2354 474.294 69.2354C481.418 69.2354 487.848 70.7558 493.582 73.7968C499.317 76.8377 503.835 81.2254 507.136 86.9597C510.438 92.6072 512.089 99.167 512.089 106.639C512.089 114.111 510.394 120.714 507.006 126.449C503.704 132.096 499.143 136.44 493.322 139.481C487.587 142.522 481.158 144.043 474.033 144.043ZM474.033 124.754C478.291 124.754 481.896 123.19 484.85 120.063C487.891 116.935 489.412 112.46 489.412 106.639C489.412 100.818 487.935 96.3432 484.981 93.2154C482.114 90.0876 478.551 88.5236 474.294 88.5236C469.95 88.5236 466.344 90.0876 463.477 93.2154C460.61 96.2563 459.176 100.731 459.176 106.639C459.176 112.46 460.566 116.935 463.347 120.063C466.214 123.19 469.776 124.754 474.033 124.754ZM564.443 124.103V143H553.105C545.024 143 538.725 141.045 534.207 137.135C529.689 133.139 527.43 126.666 527.43 117.717V88.7843H518.568V70.278H527.43V52.5536H549.716V70.278H564.313V88.7843H549.716V117.977C549.716 120.149 550.237 121.713 551.28 122.669C552.323 123.625 554.06 124.103 556.493 124.103H564.443ZM609.959 144.043C602.835 144.043 596.406 142.522 590.671 139.481C585.024 136.44 580.549 132.096 577.248 126.449C574.033 120.801 572.426 114.198 572.426 106.639C572.426 99.167 574.076 92.6072 577.378 86.9597C580.68 81.2254 585.197 76.8377 590.932 73.7968C596.666 70.7558 603.096 69.2354 610.22 69.2354C617.345 69.2354 623.774 70.7558 629.508 73.7968C635.243 76.8377 639.761 81.2254 643.062 86.9597C646.364 92.6072 648.015 99.167 648.015 106.639C648.015 114.111 646.32 120.714 642.932 126.449C639.63 132.096 635.069 136.44 629.248 139.481C623.513 142.522 617.084 144.043 609.959 144.043ZM609.959 124.754C614.217 124.754 617.822 123.19 620.777 120.063C623.817 116.935 625.338 112.46 625.338 106.639C625.338 100.818 623.861 96.3432 620.907 93.2154C618.04 90.0876 614.477 88.5236 610.22 88.5236C605.876 88.5236 602.27 90.0876 599.403 93.2154C596.536 96.2563 595.102 100.731 595.102 106.639C595.102 112.46 596.492 116.935 599.273 120.063C602.14 123.19 605.702 124.754 609.959 124.754ZM704.149 69.496C712.663 69.496 719.44 72.2763 724.48 77.8369C729.606 83.3106 732.169 90.8695 732.169 100.514V143H710.013V103.511C710.013 98.6456 708.754 94.8662 706.234 92.1728C703.714 89.4794 700.326 88.1327 696.068 88.1327C691.811 88.1327 688.423 89.4794 685.903 92.1728C683.383 94.8662 682.124 98.6456 682.124 103.511V143H659.838V70.278H682.124V79.9221C684.383 76.7074 687.423 74.1878 691.246 72.3632C695.069 70.4517 699.37 69.496 704.149 69.496ZM758.863 62.7191C754.953 62.7191 751.739 61.5896 749.219 59.3306C746.786 56.9847 745.57 54.1175 745.57 50.729C745.57 47.2537 746.786 44.3865 749.219 42.1275C751.739 39.7816 754.953 38.6087 758.863 38.6087C762.686 38.6087 765.814 39.7816 768.247 42.1275C770.766 44.3865 772.026 47.2537 772.026 50.729C772.026 54.1175 770.766 56.9847 768.247 59.3306C765.814 61.5896 762.686 62.7191 758.863 62.7191ZM769.941 70.278V143H747.655V70.278H769.941ZM826.623 124.103V143H815.284C807.204 143 800.905 141.045 796.387 137.135C791.869 133.139 789.61 126.666 789.61 117.717V88.7843H780.748V70.278H789.61V52.5536H811.896V70.278H826.492V88.7843H811.896V117.977C811.896 120.149 812.417 121.713 813.46 122.669C814.502 123.625 816.24 124.103 818.673 124.103H826.623ZM834.605 106.509C834.605 99.0366 835.995 92.4769 838.776 86.8294C841.643 81.1819 845.509 76.8377 850.375 73.7968C855.24 70.7558 860.67 69.2354 866.665 69.2354C871.792 69.2354 876.266 70.278 880.089 72.3632C883.999 74.4484 886.996 77.1853 889.082 80.5737V70.278H911.367V143H889.082V132.704C886.909 136.093 883.868 138.83 879.959 140.915C876.136 143 871.661 144.043 866.535 144.043C860.627 144.043 855.24 142.522 850.375 139.481C845.509 136.353 841.643 131.966 838.776 126.318C835.995 120.584 834.605 113.981 834.605 106.509ZM889.082 106.639C889.082 101.078 887.518 96.6908 884.39 93.476C881.349 90.2613 877.613 88.654 873.182 88.654C868.751 88.654 864.971 90.2613 861.843 93.476C858.802 96.6039 857.282 100.948 857.282 106.509C857.282 112.069 858.802 116.5 861.843 119.802C864.971 123.017 868.751 124.624 873.182 124.624C877.613 124.624 881.349 123.017 884.39 119.802C887.518 116.587 889.082 112.2 889.082 106.639Z" fill="white"/>
</svg>
