<svg width="195" height="47" viewBox="0 0 195 47" fill="none" xmlns="http://www.w3.org/2000/svg">
<path d="M49.9735 23.0958C49.146 24.269 48.4853 25.5514 48.0106 26.9063C47.8951 27.2389 47.7011 27.3301 47.3824 27.3566C46.2647 27.4502 45.1492 27.5668 44.0338 27.725C46.0199 27.8601 48.0083 27.7538 49.9909 27.8901C49.7599 28.0379 49.5059 27.9617 49.2646 27.9628C47.9829 27.9709 46.7011 27.9628 45.4194 27.9686C51.1159 27.9686 56.8124 27.9721 62.5088 27.979C62.7063 27.979 63.0134 27.7966 63.1058 28.1753C61.8557 29.3847 60.6059 30.5948 59.3565 31.8056C59.1452 32.0123 58.8947 31.9615 58.6556 31.9615C55.1488 31.9615 51.6421 31.9708 48.1353 31.9615C47.7173 31.9615 47.4552 32.0608 47.2046 32.4361C46.5018 33.4841 45.7279 34.4826 44.8883 35.4244C42.5985 35.623 40.303 35.4776 38.011 35.5249C37.7269 35.5249 37.4336 35.4753 37.1599 35.5896C34.7143 35.5896 32.2683 35.5919 29.8219 35.5965C29.8069 35.5965 29.7792 35.5873 29.7792 35.5815C29.7799 35.5623 29.7846 35.5434 29.793 35.5261C29.9905 35.4106 30.2064 35.4706 30.4131 35.4706C32.4072 35.4637 34.4014 35.4706 36.3955 35.4637C34.2863 35.4637 32.1771 35.4637 30.0678 35.4637C29.9722 35.4743 29.8756 35.4558 29.7907 35.4106C30.4997 33.7155 30.9685 31.965 30.8888 30.1117C30.711 25.919 28.8635 22.6374 25.4144 20.2657C25.0588 20.022 25.0542 19.8696 25.2759 19.5729C25.5496 19.2057 25.8013 18.8212 26.0611 18.4447C26.389 18.3708 26.6003 18.6052 26.8347 18.7519C27.5518 19.2022 28.2446 19.6849 28.8104 20.3257C29.0644 20.6144 29.3404 20.6502 29.681 20.4701C33.4996 18.4528 37.6484 17.6572 41.8815 17.1319C45.0788 16.7358 48.2935 16.439 51.4458 15.7462C53.2852 15.3398 55.0599 14.707 56.8232 14.0535C60.6533 12.6228 64.4707 11.1575 68.3608 9.89657C68.5987 9.81921 68.855 9.8273 69.0848 9.72222L70.3018 9.62061L67.1553 11.4554C66.9955 11.5622 66.8279 11.6572 66.6542 11.7395C63.9984 12.8018 62.2363 14.9091 60.5343 17.0649C60.2517 17.4495 59.8298 17.7081 59.3589 17.7854C57.4963 18.1346 55.6955 18.7572 54.0149 19.6329C53.7263 19.6814 53.642 19.4089 53.4826 19.2715C53.2956 19.1087 53.1709 19.111 53.0011 19.2819C51.9919 20.2969 50.9423 21.2703 49.9493 22.3002C49.6664 22.5878 49.7588 22.8337 49.9735 23.0958Z" fill="#163300"/>
<path d="M54.4951 40.0617C51.3959 38.7142 49.4422 36.361 48.4261 33.1752C48.3256 32.8588 48.3037 32.696 48.7401 32.7133C49.7955 32.7433 50.8517 32.7433 51.9086 32.7133C52.352 32.6994 52.5737 32.853 52.7954 33.241C54.3034 35.8783 56.562 37.1958 59.6346 37.0122C63.161 36.8021 66.2348 33.7433 66.4196 30.2665C66.6216 26.4641 64.094 23.2726 60.4013 22.6698C57.4742 22.1918 54.5032 23.6663 52.8958 26.4803C52.5598 27.068 52.203 27.2666 51.5587 27.2389C50.4491 27.1904 49.3359 27.2251 48.1766 27.2251C48.7124 25.597 49.4814 24.1305 50.583 22.8615C53.2018 19.8478 56.4719 18.3305 60.5133 18.6607C62.862 18.8583 65.0831 19.8131 66.8425 21.3815C68.6018 22.9499 69.8044 25.0472 70.2693 27.3579C71.4679 33.2029 68.3248 38.6357 62.6645 40.5028C62.4336 40.5802 62.1911 40.6553 61.9532 40.7338C61.8135 41.0051 61.5572 41.0652 61.287 41.0964C60.4259 41.2102 59.5571 41.2538 58.6889 41.2268C57.6428 41.1529 56.6013 41.0444 55.6048 40.6934C55.2018 40.549 54.733 40.5017 54.4951 40.0617Z" fill="#163300"/>
<path d="M10.1943 40.9545L15.1595 40.8101L15.171 40.7166C14.6422 40.5226 14.1075 40.3448 13.5856 40.1323C7.06278 37.4766 4.47397 29.6916 8.17937 23.8651C9.03731 22.5176 10.1712 21.4402 11.4737 20.5303C11.5849 20.4426 11.715 20.382 11.8537 20.3533C11.9924 20.3247 12.1359 20.3287 12.2727 20.3652C14.0995 20.7971 15.9273 21.2266 17.7217 21.782C17.8834 21.8328 18.2021 21.819 18.142 22.0453C18.0716 22.3051 17.9758 22.6446 17.5554 22.6411C17.1909 22.6362 16.8268 22.6656 16.4677 22.7289C13.7658 23.2138 11.9644 24.8327 11.0545 27.3476C10.1308 29.8879 10.5996 32.3024 12.3663 34.3462C15.2264 37.6544 20.0334 37.7941 22.9548 34.733C25.6637 31.8948 25.6406 27.7495 22.8543 24.7195C22.4583 24.2877 22.4559 23.9967 22.7539 23.5568C23.2481 22.827 23.7184 22.0819 24.1649 21.3213C24.3635 20.9853 24.5205 20.9333 24.8577 21.1608C26.2976 22.1388 27.3137 23.4609 28.0366 25.0186C29.9995 29.254 29.025 34.5714 25.7041 37.8484C24.7064 38.8322 23.4906 39.4753 22.2804 40.1335C21.5172 40.6924 20.6142 40.8598 19.7182 41.048C17.7275 41.1311 15.7357 41.1057 13.745 41.1069C13.5521 41.1258 13.3575 41.1157 13.1676 41.0769L10.1885 41.0388C10.147 41.0191 10.1331 40.9995 10.147 40.981C10.1518 40.9728 10.1588 40.9661 10.1671 40.9614C10.1754 40.9567 10.1848 40.9544 10.1943 40.9545Z" fill="#163300"/>
<path d="M69.0937 9.7127C68.1699 10.2554 67.1307 10.4598 66.14 10.8004C63.7301 11.6283 61.3492 12.5325 58.9601 13.4227C56.5907 14.3014 54.2432 15.2552 51.7699 15.8256C49.7168 16.299 47.6315 16.5877 45.5403 16.8394C42.6351 17.1859 39.7207 17.4872 36.8547 18.1096C34.3733 18.6454 31.9693 19.4156 29.7292 20.6291C29.3377 20.8416 29.0756 20.8705 28.7569 20.4894C28.0214 19.6084 27.0249 19.0449 26.0699 18.4445C26.5538 17.5108 27.111 16.6169 27.7362 15.7714C28.5052 14.7102 29.5964 14.2922 30.8758 14.2957C33.6609 14.3037 36.446 14.3061 39.2299 14.3199C43.2436 14.3419 47.2573 14.4354 51.2699 14.3788C54.0192 14.3407 56.0145 12.9562 57.1992 10.4656C57.3863 10.0718 57.5699 9.8963 58.0398 9.90554C61.5166 9.97482 64.9864 9.6746 68.4632 9.68845C68.6734 9.68499 68.8835 9.70231 69.0937 9.7127Z" fill="#9FE870"/>
<path d="M22.1539 16.0749C20.0685 16.1014 17.9739 16.3058 15.9047 15.9259C14.8297 15.7296 13.9417 14.6119 13.8817 13.5496C13.862 13.1754 14.093 12.9018 14.2835 12.6258C15.8077 10.3823 17.8538 8.7553 20.326 7.6849C23.0545 6.50365 25.9054 5.80507 28.8949 5.75195C28.9908 5.75195 29.0878 5.75195 29.1825 5.75195C29.2148 5.75195 29.2448 5.77966 29.3395 5.82585C28.7945 6.21383 28.2668 6.56832 27.761 6.95283C26.1849 8.1514 24.7357 9.47583 23.6561 11.1605C23.6573 11.2953 23.6083 11.4258 23.5187 11.5266C22.548 12.8999 21.7168 14.3667 21.0373 15.9051C21.3964 15.964 21.8225 15.7296 22.1539 16.0749Z" fill="#9FE870"/>
<path d="M16.3455 27.7776C17.0834 26.1445 17.9261 24.5608 18.8685 23.0365C21.1248 19.3911 23.2644 15.6742 25.5657 12.0588C25.6996 11.8487 25.762 11.724 25.5264 11.4965C25.4165 11.3952 25.3276 11.2732 25.2648 11.1375C25.202 11.0018 25.1666 10.8551 25.1606 10.7057C25.1546 10.5563 25.1781 10.4071 25.2298 10.2668C25.2815 10.1265 25.3603 9.99781 25.4618 9.88801C25.844 9.4804 26.6349 9.42613 27.1014 9.77254C27.6118 10.1513 27.6788 10.6963 27.2504 11.3441C27.1003 11.575 27.1419 11.6397 27.3151 11.8637C28.203 13.0184 29.4963 12.9953 30.741 13.1338C30.7066 13.1786 30.6582 13.2107 30.6036 13.2251C30.4708 13.247 30.3484 13.1881 30.2676 13.1997C30.5632 13.3729 30.9997 13.1258 31.3241 13.4098C30.6983 13.4814 30.069 13.5403 29.4455 13.6292C28.888 13.702 28.3513 13.8878 27.8681 14.1754C27.2872 14.5396 26.8014 15.0372 26.4514 15.6268C25.0057 17.9512 20.9735 24.6957 19.2322 27.3804C18.7484 28.1298 18.3408 28.7221 18.1053 29.0582C17.7323 29.6482 17.073 29.8768 16.6503 29.6921C16.1365 29.4669 15.8305 28.5559 16.3455 27.7776Z" fill="#1F2223"/>
<path d="M45.8896 13.1977C44.243 13.2519 42.6438 13.0626 41.0399 12.9286C38.3071 12.6977 35.5744 12.471 32.8416 12.2485C31.7908 12.1608 30.7412 12.0661 29.6905 11.9829C29.3441 11.9552 29.2113 11.8444 29.3891 11.4853C29.9768 10.2971 30.7516 9.27404 31.8567 8.51772C32.3509 8.17939 32.8866 8.26599 33.412 8.34682C34.7099 8.54774 35.9142 9.03963 37.1174 9.54654C39.8887 10.7116 42.6599 11.8559 45.437 13.0106L45.8896 13.1977Z" fill="#1E2223"/>
<path d="M19.8395 40.9376L22.2794 40.1351C22.8729 40.2275 23.4676 40.1513 24.0611 40.1513L52.7828 40.1732C53.2054 40.1732 53.6269 40.2079 54.053 40.2125C54.2135 40.2125 54.4109 40.2852 54.4987 40.0601C55.6441 40.6593 56.8854 40.9018 58.1498 41.0577C58.3184 41.0785 58.4962 41.0427 58.6486 41.1432C58.4639 41.3002 58.2433 41.2205 58.0401 41.2205C55.852 41.2274 53.6627 41.2679 51.4746 41.2205C41.1112 40.9838 30.7467 41.1778 20.3834 41.1051C20.1975 41.1027 19.9412 41.2425 19.8395 40.9376Z" fill="#9FE870"/>
<path d="M16.1145 29.8021C16.5764 30.2639 17.4297 30.1785 17.9412 29.9175C18.2726 29.7524 18.4712 29.5088 18.7622 29.152C19.0324 28.8206 19.0544 28.7016 19.462 28.0585C20.1479 26.9765 20.3326 26.9234 20.4469 26.9315C20.6328 26.9454 20.7645 27.1347 21.0058 27.4788C21.1621 27.7042 21.2897 27.9482 21.3857 28.2051C21.6296 28.8695 21.6941 29.5864 21.5727 30.2836C21.3129 31.9867 19.9562 33.3031 18.3869 33.4359C16.3304 33.6102 14.7497 32.6391 14.1585 30.8413C13.6112 29.1716 14.4333 27.0031 15.9494 26.1359C16.0914 26.0551 16.2669 25.9177 16.4113 26.0436C16.5048 26.1232 16.4321 26.3438 16.3882 26.4777C16.1723 27.122 16.0637 27.4453 15.9159 27.8576C15.745 28.3599 15.618 29.3067 16.1145 29.8021Z" fill="#9FE870"/>
<path d="M10.3171 19.6422C13.6103 17.2693 17.0905 17.0245 20.789 17.9032C20.1966 19.1122 19.4033 20.1722 18.7278 21.3015C18.5558 21.5901 18.3422 21.3765 18.1747 21.328C16.3919 20.8049 14.6044 20.2969 12.7823 19.9251C12.0145 19.768 11.2304 19.7311 10.3171 19.6422Z" fill="#163300"/>
<path d="M19.8392 40.9379C20.0298 41.1295 20.2734 41.0533 20.4963 41.0533C30.2753 41.0533 40.0555 41.021 49.8346 41.0787C52.4442 41.0938 55.0549 41.1376 57.6645 41.1619C57.9913 41.1619 58.3169 41.1469 58.6437 41.1388C59.5675 41.2427 60.4612 41.0002 61.3699 40.9263C61.5685 40.9113 61.7591 40.7958 61.9542 40.7266C62.311 40.9321 62.7024 40.842 63.0754 40.827C65.1111 40.7704 67.1399 40.9771 69.1745 40.9852C67.342 41.1734 65.5037 41.1642 63.6666 41.1861C49.5794 41.3593 35.4922 41.1041 21.3981 41.1861C18.8462 41.2011 16.2932 41.1503 13.7402 41.1249C13.5508 41.1249 13.3614 41.0903 13.1721 41.073C14.015 41.0591 14.8591 41.0129 15.7008 41.0395C17.083 41.0926 18.4605 40.9898 19.8392 40.9379Z" fill="#9FE870"/>
<path d="M22.1539 16.0749H20.8006C21.6089 14.2782 22.4553 12.6189 23.6573 11.1582C23.9956 11.4884 24.566 11.791 24.6099 12.157C24.6538 12.523 24.1792 12.9653 23.9298 13.366C23.4483 14.1477 22.9703 14.9317 22.4784 15.7065C22.3929 15.8416 22.3687 16.0472 22.1539 16.0749Z" fill="#163300"/>
<path d="M62.8224 29.27C62.8711 30.0252 62.7009 30.7784 62.3322 31.4394C61.9636 32.1003 61.4121 32.6408 60.744 32.9962C59.4011 33.689 57.542 33.3819 56.8261 32.659C57.4797 32.659 58.0963 32.6521 58.721 32.659C58.8733 32.6665 59.0254 32.6412 59.1672 32.5851C59.309 32.5289 59.4372 32.4431 59.5431 32.3334C60.4449 31.4547 61.364 30.5944 62.2797 29.7296C62.4333 29.5933 62.5949 29.4652 62.8224 29.27Z" fill="#9FE870"/>
<path d="M49.9733 23.096C49.4075 22.7126 49.381 22.6341 49.8752 22.1838C50.7412 21.3986 51.3982 20.3894 52.4282 19.7797C52.4571 19.7624 52.464 19.7128 52.4883 19.6851C53.412 18.6043 53.0841 18.7001 54.0182 19.625C52.4652 20.5395 51.0842 21.6619 49.9733 23.096Z" fill="#2D3134"/>
<path d="M61.6091 27.1761H56.5747C57.5308 25.8655 60.0607 25.8505 61.6091 27.1761Z" fill="#9FE870"/>
<path d="M63.1102 28.176C62.9266 27.9139 62.6483 28.0317 62.4174 28.0317C56.7794 28.0248 51.1411 28.0228 45.5023 28.0259H44.8846V27.8908H49.9883C53.3038 27.8908 56.6189 27.8939 59.9336 27.9C60.9729 27.9 62.0029 27.8897 63.0375 27.8885C63.1379 27.8885 63.2949 27.8261 63.31 27.9913C63.3227 28.0444 63.1864 28.1148 63.1102 28.176Z" fill="#163300"/>
<path d="M37.1691 35.5868C37.228 35.3847 37.3942 35.4101 37.5455 35.4113L44.8974 35.4217C44.835 35.5833 44.6907 35.5683 44.5602 35.5706C42.095 35.6041 39.6332 35.6503 37.1691 35.5868Z" fill="#163300"/>
<path d="M31.3316 13.411C30.9713 13.3313 30.5672 13.4698 30.2161 13.18L30.7484 13.1304C32.0186 13.1361 33.2888 13.1627 34.5416 13.3613C34.4862 13.4664 34.3615 13.4098 34.2864 13.4675L31.3316 13.411Z" fill="#163300"/>
<path d="M29.7999 35.4082H36.3539V35.5237H29.8022C29.7923 35.4986 29.7845 35.4727 29.7791 35.4463C29.778 35.4348 29.793 35.4209 29.7999 35.4082Z" fill="#163300"/>
<path d="M34.2871 13.4768L34.5423 13.3706H36.6011C35.8298 13.5415 35.0584 13.5323 34.2871 13.4768Z" fill="#163300"/>
<path d="M10.1939 40.9541C10.1968 40.9829 10.1968 41.0119 10.1939 41.0407C9.43524 41.1273 8.67776 41.0407 7.92029 40.9541H10.1939Z" fill="#5B6362"/>
<path d="M46.6856 21.063C43.6419 21.6703 40.9491 23.0259 38.4769 24.8538C36.0047 26.6817 34.0406 28.9783 32.7601 31.8385C33.0245 30.3882 32.9229 28.976 32.6631 27.5662C32.6157 27.3075 32.7393 27.1724 32.894 27.0223C36.268 23.6841 40.2933 21.69 45.0183 21.1138C45.5698 21.0282 46.1299 21.0111 46.6856 21.063Z" fill="#FBFCFD"/>
<path d="M47.0029 19.4329C45.7327 19.5773 44.4834 19.6258 43.2363 19.8024C39.3531 20.3509 35.8751 21.822 32.8372 24.3057C31.9827 25.0055 31.9896 25.0101 31.4515 24.0401C31.2587 23.688 31.0705 23.3312 30.8453 23.0009C30.6675 22.7377 30.7299 22.636 30.9989 22.4905C35.7689 19.8948 40.8138 18.6547 46.265 19.2978C46.5168 19.329 46.7592 19.3844 47.0029 19.4329Z" fill="#FAFDFD"/>
<path d="M23.0589 8.0835C22.1929 8.83866 21.3753 9.59614 20.7576 10.5545C20.3571 11.1862 20.0677 11.8817 19.9019 12.611C19.8465 12.842 19.768 12.9182 19.5324 12.9159C18.342 12.9066 17.1515 12.9159 15.961 12.9159C15.8455 12.9159 15.6515 12.9921 15.6146 12.827C15.5915 12.7265 15.6873 12.5775 15.7635 12.4806C16.7025 11.2425 17.901 10.2249 19.275 9.49915C20.463 8.85067 21.737 8.37403 23.0589 8.0835Z" fill="#FCFDFD"/>
<path d="M109.639 12.7875V35H104.229V21.6788L99.2609 35H94.8944L89.895 21.6472V35H84.4842V12.7875H90.8759L97.1093 28.1654L103.279 12.7875H109.639ZM121.567 35.2531C119.838 35.2531 118.277 34.884 116.884 34.1457C115.513 33.4074 114.427 32.3526 113.625 30.9815C112.845 29.6104 112.455 28.0072 112.455 26.172C112.455 24.3578 112.855 22.7652 113.657 21.3941C114.459 20.0018 115.555 18.9366 116.948 18.1982C118.34 17.4599 119.901 17.0908 121.631 17.0908C123.36 17.0908 124.921 17.4599 126.314 18.1982C127.706 18.9366 128.803 20.0018 129.604 21.3941C130.406 22.7652 130.807 24.3578 130.807 26.172C130.807 27.9861 130.395 29.5893 129.573 30.9815C128.771 32.3526 127.664 33.4074 126.25 34.1457C124.858 34.884 123.297 35.2531 121.567 35.2531ZM121.567 30.5702C122.601 30.5702 123.476 30.1905 124.194 29.4311C124.932 28.6717 125.301 27.5853 125.301 26.172C125.301 24.7586 124.942 23.6723 124.225 22.9129C123.529 22.1535 122.664 21.7738 121.631 21.7738C120.576 21.7738 119.701 22.1535 119.004 22.9129C118.308 23.6512 117.96 24.7375 117.96 26.172C117.96 27.5853 118.298 28.6717 118.973 29.4311C119.669 30.1905 120.534 30.5702 121.567 30.5702ZM143.518 30.4119V35H140.765C138.803 35 137.274 34.5254 136.177 33.5761C135.08 32.6058 134.532 31.0342 134.532 28.8615V21.837H132.38V17.3439H134.532V13.0406H139.942V17.3439H143.486V21.837H139.942V28.9248C139.942 29.4522 140.069 29.8319 140.322 30.0639C140.575 30.2959 140.997 30.4119 141.588 30.4119H143.518ZM154.569 35.2531C152.839 35.2531 151.278 34.884 149.886 34.1457C148.515 33.4074 147.428 32.3526 146.627 30.9815C145.846 29.6104 145.456 28.0072 145.456 26.172C145.456 24.3578 145.857 22.7652 146.658 21.3941C147.46 20.0018 148.557 18.9366 149.949 18.1982C151.341 17.4599 152.902 17.0908 154.632 17.0908C156.362 17.0908 157.923 17.4599 159.315 18.1982C160.707 18.9366 161.804 20.0018 162.606 21.3941C163.407 22.7652 163.808 24.3578 163.808 26.172C163.808 27.9861 163.397 29.5893 162.574 30.9815C161.772 32.3526 160.665 33.4074 159.252 34.1457C157.859 34.884 156.298 35.2531 154.569 35.2531ZM154.569 30.5702C155.602 30.5702 156.478 30.1905 157.195 29.4311C157.933 28.6717 158.302 27.5853 158.302 26.172C158.302 24.7586 157.944 23.6723 157.227 22.9129C156.53 22.1535 155.666 21.7738 154.632 21.7738C153.577 21.7738 152.702 22.1535 152.006 22.9129C151.31 23.6512 150.962 24.7375 150.962 26.172C150.962 27.5853 151.299 28.6717 151.974 29.4311C152.67 30.1905 153.535 30.5702 154.569 30.5702ZM172.089 20.2866C172.722 19.3163 173.513 18.5568 174.462 18.0084C175.412 17.4388 176.466 17.1541 177.627 17.1541V22.8812H176.139C174.789 22.8812 173.777 23.1765 173.102 23.7672C172.427 24.3367 172.089 25.3493 172.089 26.8048V35H166.679V17.3439H172.089V20.2866ZM182.934 15.5087C181.985 15.5087 181.204 15.2345 180.593 14.686C180.002 14.1165 179.707 13.4203 179.707 12.5977C179.707 11.7539 180.002 11.0578 180.593 10.5093C181.204 9.93975 181.985 9.65498 182.934 9.65498C183.862 9.65498 184.622 9.93975 185.212 10.5093C185.824 11.0578 186.13 11.7539 186.13 12.5977C186.13 13.4203 185.824 14.1165 185.212 14.686C184.622 15.2345 183.862 15.5087 182.934 15.5087ZM185.624 17.3439V35H180.213V17.3439H185.624Z" fill="#163300"/>
</svg>
